<svg width="21" height="11" viewBox="0 0 21 11" fill="none" xmlns="http://www.w3.org/2000/svg">
<g clip-path="url(#clip0_21_5887)">
<path d="M4.88754 1.40112L6.92497 4.77159C5.27193 5.75458 4.15703 7.48684 4.10353 9.47109H0.164001C0.164001 6.05835 2.0537 3.06944 4.8879 1.40112H4.88754Z" fill="#585858"/>
<path d="M14.7218 1.09767L12.6812 4.47727C11.894 4.11329 11.0154 3.90898 10.0833 3.90898C9.15123 3.90898 8.26306 4.11329 7.47586 4.48031L5.43524 1.10342C6.82081 0.399828 8.40158 0 10.0833 0C11.7651 0 13.3395 0.396784 14.7218 1.09767Z" fill="#585858"/>
<path d="M20.003 9.47143H16.0635C16.01 7.48412 14.8919 5.74578 13.2325 4.76583L15.2699 1.39807C18.1101 3.06402 20.003 6.05563 20.003 9.47143Z" fill="#585858"/>
<path d="M9.62136 8.4891C9.19729 8.73603 9.06515 9.26305 9.32625 9.66761C9.58912 10.0752 10.1436 10.2031 10.5676 9.95615L10.8461 9.70482L14.1086 6.72742L9.87006 8.39066L9.62136 8.48876V8.4891Z" fill="#585858"/>
</g>
<defs>
<clipPath id="clip0_21_5887">
<rect width="19.839" height="10.082" fill="white" transform="translate(0.164001)"/>
</clipPath>
</defs>
</svg>
