<svg width="64" height="21" viewBox="0 0 64 21" fill="none" xmlns="http://www.w3.org/2000/svg">
<g clip-path="url(#clip0_74_7288)">
<path d="M0.513252 18.0342H0.992311L0.543669 19.7642C0.475232 20.0184 0.49044 20.2162 0.581689 20.3433C0.672939 20.4704 0.840229 20.5339 1.09116 20.5339C1.3421 20.5339 1.53981 20.4704 1.69949 20.3433C1.85918 20.2162 1.96564 20.0184 2.03407 19.7642L2.48272 18.0342H2.96938L2.51313 19.8066C2.41428 20.1879 2.23939 20.4774 1.98085 20.6681C1.72991 20.8587 1.39533 20.9576 0.984707 20.9576C0.574085 20.9576 0.292733 20.8658 0.140651 20.6751C-0.0114313 20.4845 -0.0418478 20.195 0.0570057 19.8137L0.513252 18.0342ZM2.90094 20.8799L3.66135 17.9213L5.10613 19.6583C5.14416 19.7077 5.18218 19.7572 5.2202 19.8137C5.25822 19.8702 5.29624 19.9337 5.34186 20.0043L5.85134 18.0342H6.29998L5.53957 20.9858L4.06437 19.2135L3.95031 19.0652C3.91229 19.0087 3.88187 18.9593 3.85906 18.8957L3.34959 20.8728H2.90094V20.8799ZM6.26196 20.8799L6.99195 18.0342H7.47862L6.74862 20.8799H6.26196ZM7.4406 20.8799L8.17059 18.0342H9.83589L9.73704 18.4297H8.5584L8.3759 19.1358H9.55454L9.44808 19.5383H8.26944L7.92726 20.8728H7.4406V20.8799ZM9.64579 20.8799L10.3758 18.0342H10.8624L10.1325 20.8799H9.64579ZM10.8244 20.8799L11.5544 18.0342H13.2197L13.1209 18.4297H11.9422L11.7597 19.1429H12.9384L12.8319 19.5453H11.6533L11.4175 20.4633H12.5962L12.4897 20.8799H10.8244ZM13.0524 20.8799L13.7824 18.0342H14.4364C14.8622 18.0342 15.1588 18.0554 15.3185 18.0978C15.4781 18.1402 15.615 18.2037 15.7215 18.3026C15.8583 18.4297 15.9496 18.5921 15.9876 18.7827C16.0256 18.9804 16.0104 19.2064 15.9496 19.4535C15.8812 19.7077 15.7823 19.9266 15.6454 20.1244C15.5086 20.3221 15.3337 20.4774 15.1284 20.6045C14.9763 20.7034 14.809 20.7669 14.6265 20.8093C14.4516 20.8517 14.1854 20.8728 13.8357 20.8728H13.0524V20.8799ZM13.6456 20.4562H14.0562C14.2767 20.4562 14.4516 20.4421 14.5733 20.4139C14.6949 20.3856 14.8014 20.3362 14.9002 20.2726C15.0371 20.1808 15.1512 20.0679 15.2424 19.9266C15.3337 19.7925 15.4021 19.6301 15.4477 19.4465C15.4933 19.2629 15.5086 19.1075 15.4857 18.9734C15.4629 18.8392 15.4097 18.7192 15.3185 18.6274C15.25 18.5568 15.1664 18.5144 15.0523 18.4862C14.9382 18.4579 14.7634 18.4438 14.5124 18.4438H14.1626L13.6456 20.4562ZM18.1852 19.6018L17.8582 20.8799H17.402L18.132 18.0342H18.8696C19.0901 18.0342 19.2422 18.0484 19.341 18.0695C19.4399 18.0907 19.5159 18.126 19.5768 18.1825C19.6528 18.2461 19.706 18.3379 19.7288 18.4509C19.7517 18.5638 19.744 18.6839 19.7136 18.818C19.6756 18.9522 19.6224 19.0793 19.5387 19.1923C19.4551 19.3053 19.3562 19.3971 19.2498 19.4606C19.1585 19.51 19.0597 19.5524 18.9532 19.5736C18.8468 19.5948 18.6795 19.6089 18.4666 19.6089H18.1852V19.6018ZM18.3145 19.2205H18.4361C18.7023 19.2205 18.8924 19.1923 18.9988 19.1358C19.1053 19.0793 19.1737 18.9804 19.2118 18.8392C19.2498 18.6909 19.227 18.578 19.1509 18.5215C19.0673 18.4579 18.9 18.4297 18.6491 18.4297H18.5274L18.3145 19.2205ZM21.3637 20.8799L21.2116 20.1455H20.0254L19.4931 20.8799H18.9836L21.1888 17.9213L21.8732 20.8799H21.3637ZM20.3144 19.7572H21.1432L21.0063 19.1075C20.9987 19.0652 20.9911 19.0158 20.9911 18.9663C20.9835 18.9098 20.9835 18.8533 20.9835 18.7898C20.9531 18.8533 20.9227 18.9098 20.8847 18.9663C20.8542 19.0228 20.8238 19.0722 20.7934 19.1146L20.3144 19.7572ZM22.5728 20.8799L22.9074 19.5806L22.299 18.0413H22.8085L23.1887 19.0087C23.1963 19.0369 23.2039 19.0652 23.2191 19.1075C23.2343 19.1499 23.2419 19.1923 23.2571 19.2346L23.3484 19.1075C23.3788 19.0652 23.4092 19.0299 23.4396 18.9946L24.3293 18.0413H24.816L23.394 19.5736L23.0594 20.8728H22.5728V20.8799ZM27.2037 19.4747C27.2037 19.4535 27.2113 19.39 27.2265 19.2911C27.2341 19.2064 27.2417 19.1429 27.2493 19.0864C27.2189 19.1499 27.1885 19.2135 27.1504 19.2841C27.1124 19.3476 27.0668 19.4182 27.0136 19.4818L25.8425 20.9999L25.4623 19.4535C25.4471 19.39 25.4319 19.3264 25.4243 19.27C25.4167 19.2135 25.4091 19.1499 25.4091 19.0934C25.3939 19.1499 25.3711 19.2135 25.3483 19.2841C25.3255 19.3476 25.295 19.4182 25.257 19.4889L24.5727 20.887H24.124L25.5916 17.9213L26.0098 19.7148C26.0174 19.7431 26.025 19.7925 26.0326 19.856C26.0403 19.9196 26.0555 20.0043 26.0707 20.1032C26.1239 20.0184 26.1923 19.9196 26.2836 19.7925C26.3064 19.7572 26.3292 19.736 26.3368 19.7148L27.6599 17.9213L27.6143 20.887H27.1657L27.2037 19.4747ZM28.0097 20.8799L28.7397 18.0342H30.405L30.3062 18.4297H29.1275L28.945 19.1429H30.1237L30.0172 19.5453H28.8386L28.6028 20.4633H29.7815L29.675 20.8799H28.0097ZM30.2301 20.8799L30.9905 17.9213L32.4353 19.6583C32.4733 19.7077 32.5113 19.7572 32.5494 19.8137C32.5874 19.8702 32.6254 19.9337 32.671 20.0043L33.1805 18.0342H33.6292L32.8687 20.9858L31.3935 19.2135L31.2795 19.0652C31.2415 19.0087 31.211 18.9593 31.1882 18.8957L30.6788 20.8728H30.2301V20.8799ZM35.1804 18.4226L34.5493 20.8728H34.0626L34.6937 18.4226H33.9029L34.0018 18.0272H36.0701L35.9712 18.4226H35.1804ZM35.6899 20.3079L36.1233 20.1385C36.1309 20.2656 36.1689 20.3644 36.2526 20.428C36.3362 20.4915 36.4503 20.5268 36.6024 20.5268C36.7544 20.5268 36.8685 20.4915 36.975 20.4139C37.0814 20.3362 37.1499 20.2373 37.1803 20.1102C37.2259 19.9408 37.1194 19.7925 36.8609 19.6654C36.8229 19.6442 36.8001 19.6301 36.7773 19.623C36.4883 19.4677 36.3058 19.3335 36.2298 19.2064C36.1537 19.0793 36.1385 18.931 36.1841 18.7545C36.245 18.5215 36.3742 18.3379 36.5795 18.1896C36.7849 18.0484 37.013 17.9707 37.2867 17.9707C37.5072 17.9707 37.6821 18.0131 37.8114 18.0907C37.9407 18.1684 38.0091 18.2884 38.0319 18.4367L37.6061 18.6203C37.5681 18.5285 37.5225 18.465 37.4616 18.4226C37.4008 18.3802 37.3247 18.3591 37.2335 18.3591C37.1042 18.3591 36.9902 18.3944 36.8989 18.4579C36.8077 18.5215 36.7468 18.6062 36.7164 18.7192C36.6708 18.8886 36.8001 19.0511 37.0966 19.1993C37.1194 19.2135 37.1346 19.2205 37.1499 19.2276C37.4084 19.3547 37.5833 19.4818 37.6593 19.6089C37.7354 19.736 37.7506 19.8843 37.705 20.0749C37.6365 20.3433 37.492 20.5551 37.2715 20.7175C37.051 20.8728 36.7925 20.9576 36.4883 20.9576C36.2374 20.9576 36.0397 20.9011 35.9028 20.7881C35.7507 20.6751 35.6823 20.5127 35.6899 20.3079ZM39.2714 20.8799L40.0014 18.0342H40.4881L39.7581 20.8799H39.2714ZM40.4576 20.8799L41.2181 17.9213L42.6628 19.6583C42.7009 19.7077 42.7389 19.7572 42.7769 19.8137C42.8149 19.8702 42.8529 19.9337 42.8986 20.0043L43.408 18.0342H43.8567L43.0963 20.9858L41.6211 19.2135L41.507 19.0652C41.469 19.0087 41.4386 18.9593 41.4158 18.8957L40.9063 20.8728H40.4576V20.8799ZM45.4079 18.4226L44.7768 20.8728H44.2901L44.9213 18.4226H44.1304L44.2293 18.0272H46.2976L46.1987 18.4226H45.4079ZM45.9326 20.8799L46.6626 18.0342H48.3355L48.2366 18.4297H47.058L46.8755 19.1429H48.0541L47.9477 19.5453H46.7691L46.5333 20.4633H47.712L47.6055 20.8799H45.9326ZM48.9362 19.6018L48.6092 20.8728H48.153L48.883 18.0272H49.5598C49.7575 18.0272 49.9096 18.0413 50.0084 18.0625C50.1149 18.0837 50.1985 18.126 50.2593 18.1825C50.3354 18.2531 50.381 18.3379 50.4038 18.4509C50.4266 18.5568 50.419 18.6768 50.3886 18.811C50.3278 19.0369 50.2289 19.2205 50.0768 19.3476C49.9248 19.4747 49.7347 19.5524 49.5065 19.5806L50.1985 20.8728H49.651L48.9895 19.6018H48.9362ZM49.0579 19.2417H49.1491C49.4077 19.2417 49.5826 19.2135 49.6814 19.157C49.7803 19.1005 49.8487 19.0016 49.8867 18.8533C49.9248 18.698 49.9095 18.585 49.8335 18.5215C49.7575 18.4579 49.5978 18.4226 49.3545 18.4226H49.2632L49.0579 19.2417ZM50.4951 20.8799L51.2251 18.0342H52.8904L52.7915 18.4297H51.6129L51.4304 19.1358H52.609L52.5026 19.5383H51.3239L50.9817 20.8728H50.4951V20.8799ZM54.51 20.8799L54.358 20.1455H53.1717L52.6394 20.8799H52.13L54.3351 17.9213L55.0195 20.8799H54.51ZM53.4531 19.7572H54.2819L54.145 19.1075C54.1374 19.0652 54.1298 19.0158 54.1298 18.9663C54.1222 18.9098 54.1222 18.8533 54.1222 18.7898C54.0918 18.8533 54.0614 18.9098 54.0234 18.9663C53.993 19.0228 53.9625 19.0722 53.9321 19.1146L53.4531 19.7572ZM58.1828 18.7262C58.0764 18.6133 57.9471 18.5285 57.8102 18.4791C57.6734 18.4226 57.5213 18.3944 57.3464 18.3944C57.0194 18.3944 56.7304 18.4932 56.4719 18.6909C56.2134 18.8886 56.0461 19.1499 55.9624 19.4677C55.8864 19.7713 55.9168 20.0255 56.0689 20.2303C56.2134 20.428 56.4415 20.5268 56.7456 20.5268C56.9205 20.5268 57.0954 20.4986 57.2703 20.4351C57.4452 20.3786 57.6201 20.2868 57.8026 20.1667L57.6657 20.6893C57.5137 20.781 57.354 20.8446 57.1867 20.887C57.0194 20.9293 56.8521 20.9505 56.6696 20.9505C56.4415 20.9505 56.2362 20.9152 56.0613 20.8446C55.8864 20.774 55.7419 20.6681 55.6278 20.5268C55.5138 20.3927 55.4453 20.2303 55.4149 20.0467C55.3845 19.8631 55.3921 19.6654 55.4529 19.4535C55.5062 19.2417 55.5974 19.0511 55.7191 18.8675C55.8408 18.6839 56.0004 18.5215 56.1829 18.3873C56.3654 18.2461 56.5632 18.1402 56.7761 18.0695C56.989 17.9989 57.2019 17.9636 57.4224 17.9636C57.5973 17.9636 57.757 17.9848 57.9091 18.0342C58.0536 18.0837 58.1904 18.1543 58.3121 18.2531L58.1828 18.7262ZM58.2285 20.8799L58.9584 18.0342H60.6237L60.5249 18.4297H59.3463L59.1638 19.1429H60.3424L60.2359 19.5453H59.0573L58.8216 20.4633H60.0002L59.8938 20.8799H58.2285Z" fill="#3D3D3C"/>
<path d="M49.3773 15.5558H46.0391L50.6776 0H54.0158L49.3773 15.5558ZM47.6436 0.487223C47.4154 0.190652 47.0581 0.0423672 46.5714 0.0423672H28.2303L27.3254 3.0928H44.0088L43.0355 6.34802H29.6903V6.34095H26.3521L23.5842 15.6264H26.9224L28.7778 9.39845H43.7807C44.2521 9.39845 44.6932 9.25017 45.1038 8.9536C45.5144 8.65703 45.7882 8.28984 45.9174 7.85205L47.7728 1.62408C47.9173 1.15804 47.8717 0.783793 47.6436 0.487223ZM21.6375 14.5814C21.455 15.1957 20.8467 15.6264 20.1623 15.6264H2.95421C2.48276 15.6264 2.13297 15.4781 1.90485 15.1816C1.67672 14.885 1.62349 14.5178 1.76037 14.08L5.95784 0.0423672H9.29604L5.54721 12.5831H18.9L22.6489 0.0423672H25.9871L21.6375 14.5814Z" fill="#70706E"/>
<path d="M59.7797 0.0281982L64 7.82376L55.126 15.6193L59.7797 0.0281982Z" fill="#098041"/>
<path d="M56.8141 0.0281982L61.0344 7.82376L52.1528 15.6193L56.8141 0.0281982Z" fill="#E97626"/>
</g>
<defs>
<clipPath id="clip0_74_7288">
<rect width="64" height="21" fill="white"/>
</clipPath>
</defs>
</svg>
