<svg width="79" height="32" viewBox="0 0 79 32" fill="none" xmlns="http://www.w3.org/2000/svg">
<path d="M32.6 13.6L30.21 10.34C30.11 10.2 30.02 10.07 29.95 9.95997C29.88 9.85997 29.81 9.74997 29.75 9.63997H29.73C29.75 10.01 29.76 10.39 29.76 10.76V13.6H27.87V6.83997H29.79L32.08 9.93997C32.08 9.93997 32.14 10.03 32.18 10.09C32.26 10.2 32.34 10.32 32.42 10.44C32.46 10.5 32.48 10.55 32.5 10.59H32.52C32.5 10.47 32.5 10.34 32.49 10.22V6.83997H34.38V13.6H32.59H32.6ZM35.72 13.6V6.83997H39.93V8.42997H37.76V9.41997H39.8V11.01H37.76V12.01H40.09V13.6H35.72ZM44.48 8.42997V13.6H42.43V8.42997H40.54V6.83997H46.39V8.42997H44.48ZM33.65 23.6C33.65 23.9 33.6 24.17 33.5 24.42C33.4 24.67 33.24 24.89 33.02 25.08C32.8 25.27 32.52 25.41 32.19 25.52C31.85 25.63 31.44 25.68 30.96 25.68H27.88V18.92H30.75C31.65 18.92 32.33 19.06 32.77 19.33C33.22 19.6 33.44 20.01 33.44 20.56C33.44 20.85 33.35 21.13 33.17 21.35C33.09 21.45 33 21.54 32.9 21.62C32.63 21.82 32.32 21.96 31.99 22.02V22.04C32.25 22.07 32.49 22.14 32.69 22.24C32.9 22.34 33.07 22.46 33.21 22.61C33.35 22.75 33.46 22.91 33.53 23.08C33.6 23.25 33.64 23.43 33.64 23.6H33.65ZM31.27 20.9C31.27 20.68 31.18 20.52 31.01 20.42C30.83 20.32 30.59 20.27 30.29 20.27H29.91V21.55H30.5C30.62 21.55 30.72 21.53 30.82 21.5C30.91 21.47 30.99 21.42 31.07 21.36C31.14 21.3 31.19 21.23 31.23 21.15C31.27 21.07 31.28 20.98 31.28 20.89L31.27 20.9ZM31.48 23.59C31.48 23.3 31.29 23.05 31.02 22.97C30.92 22.94 30.81 22.92 30.71 22.92H29.91V24.3H30.59C30.72 24.3 30.84 24.28 30.95 24.25C31.05 24.22 31.15 24.18 31.23 24.11C31.4 23.99 31.49 23.79 31.48 23.58V23.59ZM38.79 25.67L38.49 24.42H36.47L36.15 25.67H33.95L36.28 18.91H38.81L41 25.67H38.79ZM37.64 21.14C37.62 21.06 37.6 20.99 37.59 20.91C37.57 20.83 37.56 20.76 37.55 20.69C37.54 20.63 37.53 20.57 37.52 20.51C37.52 20.46 37.51 20.41 37.51 20.38H37.46C37.46 20.44 37.44 20.54 37.41 20.67C37.38 20.8 37.35 20.95 37.31 21.1L36.82 22.98H38.11L37.64 21.14ZM46.52 25.67L44.13 22.41C44.03 22.27 43.94 22.15 43.87 22.03C43.8 21.93 43.74 21.82 43.67 21.71H43.65C43.65 21.88 43.67 22.05 43.67 22.23C43.67 22.41 43.67 22.61 43.67 22.83V25.67H41.78V18.91H43.7L45.99 22.01L46.09 22.16C46.17 22.27 46.25 22.39 46.33 22.51C46.37 22.57 46.39 22.62 46.41 22.66H46.43C46.41 22.54 46.41 22.41 46.4 22.29V18.91H48.29V25.67H46.5H46.52ZM53.38 25.67L51.88 22.81L51.83 22.7C51.78 22.58 51.73 22.46 51.7 22.34H51.68V25.67H49.64V18.91H51.68V22.13H51.7C51.76 21.97 51.83 21.81 51.9 21.66L53.25 18.92H55.66L53.74 22.15L55.84 25.69H53.37L53.38 25.67ZM56.3 25.67V18.91H58.34V25.67H56.3ZM64.4 25.67L62.01 22.41C61.91 22.27 61.82 22.15 61.75 22.03C61.68 21.93 61.61 21.82 61.55 21.71H61.53C61.55 22.08 61.56 22.46 61.56 22.83V25.67H59.67V18.91H61.59L63.88 22.01L63.98 22.16C64.06 22.27 64.14 22.39 64.22 22.51C64.26 22.57 64.28 22.62 64.3 22.66H64.32C64.3 22.54 64.3 22.41 64.29 22.29V18.91H66.18V25.67H64.39H64.4ZM73.45 25.23C73.37 25.28 73.24 25.33 73.07 25.4C72.9 25.46 72.7 25.53 72.47 25.58C72.24 25.64 71.99 25.69 71.71 25.73C71.43 25.77 71.15 25.79 70.85 25.79C70.25 25.79 69.71 25.71 69.25 25.56C68.79 25.4 68.4 25.18 68.09 24.89C67.77 24.59 67.53 24.23 67.38 23.82C67.22 23.4 67.14 22.93 67.14 22.41C67.14 22.1 67.17 21.8 67.24 21.5C67.3 21.21 67.41 20.92 67.54 20.65C67.83 20.09 68.27 19.62 68.83 19.32C69.12 19.15 69.46 19.03 69.83 18.93C70.24 18.83 70.67 18.79 71.09 18.79C71.29 18.79 71.48 18.79 71.67 18.81C71.99 18.84 72.31 18.89 72.62 18.95C72.75 18.98 72.87 19.01 72.97 19.03V20.81C72.86 20.76 72.75 20.72 72.64 20.67C72.51 20.62 72.38 20.58 72.25 20.55C72.09 20.51 71.93 20.48 71.76 20.46C71.55 20.44 71.34 20.43 71.14 20.43C70.89 20.43 70.65 20.47 70.43 20.55C70.21 20.63 70.01 20.74 69.85 20.9C69.68 21.07 69.54 21.27 69.46 21.49C69.36 21.76 69.31 22.04 69.32 22.32C69.32 22.67 69.37 22.96 69.46 23.19C69.56 23.42 69.68 23.6 69.83 23.74C69.98 23.88 70.15 23.98 70.34 24.03C70.53 24.09 70.72 24.11 70.9 24.11C71.02 24.11 71.12 24.11 71.21 24.1C71.3 24.1 71.37 24.08 71.41 24.07V23.1H70.11V21.56H73.44V25.2L73.45 25.23Z" fill="#4D4D4D"/>
<path fill-rule="evenodd" clip-rule="evenodd" d="M7.46002 6.66C7.20002 6.71 7.01003 6.93 7.01003 7.19C6.91003 9.52 7.32003 10.85 8.22003 11.42C8.67003 11.71 9.21002 11.72 9.66002 11.56C10.11 11.41 10.5 11.1 10.81 10.74C11.15 10.33 12.08 9.97001 12.76 10.1C13.1 10.17 13.39 10.31 13.6 10.61C13.81 10.91 13.96 11.4 13.93 12.17C13.88 12.47 14.09 12.76 14.39 12.81C14.69 12.86 14.98 12.65 15.03 12.35C15.03 12.31 15.03 12.27 15.03 12.23C15.07 11.28 14.88 10.52 14.5 9.97001C14.11 9.42001 13.56 9.12 12.98 9C11.83 8.78 10.62 9.20001 9.94002 10.01C9.74002 10.25 9.51003 10.41 9.30002 10.48C9.10002 10.55 8.96003 10.56 8.81003 10.46C8.51003 10.27 8.02002 9.39 8.11002 7.23C8.14002 6.92 7.91002 6.65 7.60002 6.63C7.55002 6.63 7.50002 6.63 7.45002 6.63L7.46002 6.66ZM12.39 13.69C11.09 13.69 10.03 14.74 10.03 16.04V16.86H13.73V13.7H12.39V13.69ZM14.96 13.69V16.85H19.07V16.05C19.07 14.75 18.02 13.69 16.72 13.69C16.72 13.69 16.71 13.69 16.7 13.69H14.95H14.96ZM10.03 18.09V23.19C10.03 24.49 11.08 25.55 12.38 25.55C12.38 25.55 12.39 25.55 12.4 25.55H16.72C18.02 25.55 19.08 24.5 19.08 23.2V18.09H10.04H10.03Z" fill="#265697"/>
</svg>
