<svg width="34" height="22" viewBox="0 0 34 22" fill="none" xmlns="http://www.w3.org/2000/svg">
<g clip-path="url(#clip0_74_7314)">
<path d="M32.3851 0H1.62359C0.731691 0 0.00866699 0.735128 0.00866699 1.64196V20.358C0.00866699 21.2649 0.731691 22 1.62359 22H32.3851C33.277 22 34 21.2649 34 20.358V1.64196C34 0.735128 33.277 0 32.3851 0Z" fill="url(#paint0_linear_74_7314)"/>
<path fill-rule="evenodd" clip-rule="evenodd" d="M1.62142 0H32.3851C33.2695 0 34 0.740533 34 1.64196V20.358C34 21.2573 33.2717 22 32.3851 22H32.3114C31.8041 11.5444 17.9245 3.17371 0.875741 3.17371C0.580937 3.17371 0.294804 3.17371 0 3.18253V1.64196C0 0.740533 0.728339 0 1.61492 0H1.62359H1.62142Z" fill="url(#paint1_linear_74_7314)"/>
<path d="M16.2208 3.00616H16.7952C17.0575 3.00616 17.2547 3.04803 17.3696 3.12297C17.4845 3.1979 17.5496 3.32353 17.5496 3.49764C17.5496 3.61445 17.517 3.70482 17.4585 3.78196C17.4 3.85909 17.3198 3.90758 17.2049 3.92301V3.94064C17.335 3.96488 17.4433 4.01558 17.4997 4.09051C17.5647 4.16545 17.5972 4.27344 17.5972 4.39907C17.5972 4.57318 17.5409 4.71644 17.4173 4.8068C17.2938 4.90598 17.1312 4.95667 16.9166 4.95667H16.2208V2.99955V3.00836V3.00616ZM16.5329 3.81502H16.8364C16.9664 3.81502 17.0662 3.79077 17.1225 3.7489C17.1789 3.70702 17.2136 3.63209 17.2136 3.53291C17.2136 3.44034 17.181 3.37422 17.116 3.33235C17.051 3.29047 16.9448 3.27504 16.8039 3.27504H16.5329V3.81722V3.81502ZM16.5329 4.07288V4.68999H16.8689C16.999 4.68999 17.0987 4.66575 17.1637 4.61506C17.2287 4.56436 17.2613 4.48282 17.2613 4.37262C17.2613 4.27344 17.2287 4.19851 17.155 4.14781C17.09 4.09712 16.9838 4.07288 16.8429 4.07288H16.5242H16.5329ZM18.8675 4.95667L18.8025 4.7495H18.7938C18.7201 4.84206 18.6551 4.89937 18.5814 4.93243C18.5077 4.96549 18.4166 4.98312 18.3104 4.98312C18.1717 4.98312 18.0568 4.94124 17.9744 4.86631C17.892 4.79137 17.8509 4.67456 17.8509 4.53351C17.8509 4.38364 17.9072 4.26683 18.0156 4.19189C18.1305 4.11696 18.2952 4.07508 18.5228 4.06627L18.7765 4.05745V3.98252C18.7765 3.88995 18.7526 3.81502 18.7114 3.77534C18.6702 3.72465 18.5965 3.70922 18.5077 3.70922C18.434 3.70922 18.3603 3.71804 18.2952 3.74228L18.098 3.81722L18.0004 3.59241C18.0828 3.55054 18.1652 3.51748 18.2627 3.49985C18.3538 3.4756 18.4426 3.46679 18.525 3.46679C18.7136 3.46679 18.8523 3.50866 18.9434 3.59241C19.0409 3.67617 19.0821 3.79959 19.0821 3.97591V4.97651H18.861L18.8697 4.95887L18.8675 4.95667ZM18.408 4.74068C18.5228 4.74068 18.6117 4.70762 18.6789 4.6415C18.7461 4.57538 18.7765 4.49163 18.7765 4.37482V4.2492L18.5879 4.25801C18.4405 4.26683 18.3343 4.29107 18.2692 4.33295C18.2042 4.37482 18.1717 4.44094 18.1717 4.53351C18.1717 4.59963 18.189 4.65032 18.228 4.68338C18.2671 4.71644 18.3256 4.74068 18.3993 4.74068H18.408ZM20.8011 4.95667H20.4889V4.04864C20.4889 3.93183 20.4651 3.84808 20.4239 3.79077C20.374 3.73347 20.309 3.70702 20.2115 3.70702C20.0814 3.70702 19.9817 3.7489 19.9253 3.82383C19.869 3.89877 19.8343 4.031 19.8343 4.21614V4.95006H19.5221V3.4756H19.7671L19.8083 3.66735H19.8256C19.8668 3.60123 19.9318 3.54172 20.0142 3.49985C20.0966 3.45797 20.1854 3.44254 20.2852 3.44254C20.6385 3.44254 20.8097 3.62547 20.8097 3.98472V4.95006L20.8011 4.95887V4.95667ZM21.5294 4.17426L21.7007 3.94946L22.1429 3.4756H22.4962L21.9153 4.10814L22.5374 4.95006H22.1775L21.7115 4.29989L21.5402 4.44094V4.95006H21.2368V2.86731H21.5402V3.88334L21.5229 4.16765H21.5316V4.17647L21.5294 4.17426ZM25.1017 4.95667H24.7159L23.773 3.39847H23.7643L23.773 3.48222C23.7816 3.64972 23.7903 3.79959 23.7903 3.94064V4.95667H23.5042V2.99955H23.89L24.8329 4.54894H24.8416C24.8416 4.5313 24.8329 4.45637 24.8329 4.32413C24.8243 4.19851 24.8243 4.09051 24.8243 4.02439V2.99955H25.1104V4.95667H25.1017ZM26.4869 4.95667L26.4219 4.7495H26.4132C26.3395 4.84206 26.2745 4.89937 26.2007 4.93243C26.127 4.96549 26.036 4.98312 25.9298 4.98312C25.7911 4.98312 25.6762 4.94124 25.5938 4.86631C25.5114 4.79137 25.4702 4.67456 25.4702 4.53351C25.4702 4.38364 25.5266 4.26683 25.635 4.19189C25.7499 4.11696 25.9146 4.07508 26.1422 4.06627L26.3958 4.05745V3.98252C26.3958 3.88995 26.372 3.81502 26.3308 3.77534C26.2896 3.72465 26.2159 3.70922 26.127 3.70922C26.0533 3.70922 25.9796 3.71804 25.9146 3.74228L25.7174 3.81722L25.6198 3.59241C25.7022 3.55054 25.7846 3.51748 25.8821 3.49985C25.9731 3.4756 26.062 3.46679 26.1444 3.46679C26.333 3.46679 26.4717 3.50866 26.5627 3.59241C26.6603 3.67617 26.7015 3.79959 26.7015 3.97591V4.97651H26.4804L26.489 4.95887L26.4869 4.95667ZM26.0273 4.74068C26.1422 4.74068 26.2311 4.70762 26.2983 4.6415C26.3655 4.57538 26.3958 4.49163 26.3958 4.37482V4.2492L26.2073 4.25801C26.0598 4.26683 25.9536 4.29107 25.8886 4.33295C25.8236 4.37482 25.7911 4.44094 25.7911 4.53351C25.7911 4.59963 25.8084 4.65032 25.8474 4.68338C25.8864 4.71644 25.945 4.74068 26.0187 4.74068H26.0273ZM28.3619 4.95667H28.0498V4.04864C28.0498 3.93183 28.0259 3.84807 27.9847 3.79959C27.9436 3.74228 27.8785 3.71584 27.7875 3.71584C27.6639 3.71584 27.5837 3.75771 27.5252 3.83265C27.4667 3.90758 27.4428 4.03982 27.4428 4.22495V4.95887H27.1307V3.48442H27.3756L27.4168 3.67617H27.4342C27.4753 3.61005 27.5317 3.55054 27.6054 3.50866C27.6791 3.46679 27.7701 3.45136 27.859 3.45136C28.0801 3.45136 28.2275 3.5263 28.3012 3.68498H28.3251C28.3663 3.61005 28.4313 3.55274 28.505 3.51087C28.5874 3.46899 28.6697 3.45356 28.7759 3.45356C28.9472 3.45356 29.0794 3.49544 29.1531 3.5858C29.2355 3.67837 29.2767 3.81061 29.2767 3.99354V4.95887H28.9645V4.05084C28.9645 3.93403 28.9407 3.85028 28.8995 3.80179C28.8583 3.74449 28.7933 3.71804 28.7022 3.71804C28.5787 3.71804 28.4985 3.75992 28.44 3.83485C28.3814 3.90979 28.3576 4.0266 28.3576 4.18528V4.96769V4.95887L28.3619 4.95667ZM30.3453 4.98091C30.1156 4.98091 29.9443 4.9148 29.8121 4.78035C29.6799 4.64591 29.6235 4.46298 29.6235 4.22275C29.6235 3.98252 29.6799 3.78857 29.8034 3.65633C29.9183 3.51528 30.0831 3.44916 30.2955 3.44916C30.4841 3.44916 30.6401 3.50646 30.7464 3.62327C30.8612 3.74008 30.9111 3.90758 30.9111 4.11475V4.28226H29.9443C29.953 4.42331 29.9855 4.5313 30.0592 4.61506C30.1329 4.68999 30.2305 4.73187 30.3627 4.73187C30.4451 4.73187 30.5274 4.72305 30.6011 4.70762C30.6748 4.69219 30.7572 4.66575 30.8396 4.62387V4.88174C30.7659 4.91479 30.6835 4.94785 30.6098 4.95667C30.5361 4.9743 30.4451 4.98091 30.3475 4.98091H30.3453ZM30.289 3.68939C30.1914 3.68939 30.1091 3.72245 30.0505 3.78196C29.9942 3.84807 29.953 3.94064 29.9443 4.05745H30.599C30.599 3.93183 30.5664 3.84146 30.5079 3.78196C30.4516 3.71584 30.3779 3.68939 30.2781 3.68939H30.2868H30.289ZM4.12947 18.6675L4.30939 18.7182C4.2682 18.8681 4.20317 18.9849 4.10563 19.0687C4.00808 19.1524 3.88452 19.1855 3.74579 19.1855C3.59839 19.1855 3.47483 19.1524 3.38596 19.0929C3.29708 19.0334 3.22121 18.943 3.17352 18.8262C3.12584 18.7094 3.09982 18.5838 3.09982 18.4516C3.09982 18.3017 3.12367 18.1761 3.1822 18.0681C3.24072 17.9601 3.31226 17.8763 3.42064 17.819C3.51819 17.7617 3.63307 17.7353 3.75663 17.7353C3.89536 17.7353 4.01025 17.7683 4.10129 17.8433C4.19884 17.9182 4.26603 18.0174 4.29855 18.143L4.11863 18.1849C4.08612 18.0857 4.03626 18.0108 3.9799 17.9601C3.92354 17.9094 3.84117 17.894 3.75013 17.894C3.64391 17.894 3.55287 17.9182 3.48784 17.9689C3.41414 18.0196 3.36428 18.0945 3.34044 18.1761C3.30792 18.2598 3.29925 18.3502 3.29925 18.4427C3.29925 18.5596 3.31659 18.6676 3.34911 18.7513C3.38162 18.8439 3.44015 18.91 3.50518 18.9519C3.57888 18.9937 3.65258 19.018 3.74362 19.018C3.84117 19.018 3.93221 18.9849 4.00591 18.9254C4.07961 18.8659 4.1208 18.7755 4.15331 18.6587L4.13597 18.6675H4.12947ZM4.38309 19.159L4.91634 17.7595H5.1201L5.68586 19.159H5.4821L5.32603 18.7337H4.74509L4.59769 19.159H4.38526H4.38309ZM4.77544 18.5838H5.24149L5.09409 18.1915C5.0529 18.0747 5.02038 17.9755 4.99654 17.9006C4.9792 17.9931 4.95535 18.0835 4.92284 18.1672L4.77544 18.575V18.5838ZM5.81592 19.159V17.7595H6.42937C6.55293 17.7595 6.64181 17.7771 6.709 17.8014C6.7762 17.8256 6.82389 17.8675 6.86508 17.9336C6.90626 17.9997 6.92144 18.0659 6.92144 18.1408C6.92144 18.24 6.88892 18.3237 6.82389 18.3898C6.75886 18.456 6.65915 18.4978 6.52909 18.5221C6.57894 18.5463 6.61146 18.5728 6.6353 18.5882C6.69166 18.6389 6.74152 18.6962 6.78271 18.7711L7.02115 19.1546H6.79138L6.61146 18.8637C6.5616 18.78 6.51391 18.7138 6.4814 18.672C6.44888 18.6301 6.41637 18.597 6.39036 18.5794C6.36434 18.5618 6.334 18.5463 6.30798 18.5463C6.28414 18.5375 6.25162 18.5375 6.21044 18.5375H5.99801V19.1612H5.81809V19.1524L5.81592 19.159ZM5.99584 18.3766H6.38819C6.47056 18.3766 6.53559 18.3678 6.58545 18.3524C6.6353 18.337 6.66782 18.3105 6.69166 18.2686C6.71551 18.2268 6.72418 18.1849 6.72418 18.143C6.72418 18.0769 6.70033 18.0174 6.65048 17.9755C6.60062 17.9336 6.52692 17.9094 6.42937 17.9094H5.99584V18.3766ZM7.20107 19.159V17.7595H7.67579C7.782 17.7595 7.86438 17.7683 7.92074 17.7771C8.00311 17.7948 8.06814 17.8278 8.1245 17.8763C8.1982 17.9424 8.25456 18.0174 8.28924 18.1188C8.32392 18.2201 8.3456 18.3259 8.3456 18.4516C8.3456 18.5596 8.33693 18.6521 8.31308 18.7359C8.28924 18.8196 8.25673 18.8857 8.21554 18.943C8.17435 18.9937 8.13317 19.0422 8.09198 19.0687C8.04213 19.1017 7.99444 19.126 7.92724 19.1348C7.86221 19.1524 7.78851 19.159 7.70614 19.159H7.1989H7.20107ZM7.38098 18.9915H7.67579C7.76683 18.9915 7.84053 18.9827 7.88822 18.9673C7.93591 18.9519 7.97926 18.9254 8.01178 18.8924C8.05296 18.8505 8.08548 18.7932 8.10932 18.7182C8.13317 18.6433 8.14184 18.5507 8.14184 18.4427C8.14184 18.2929 8.11799 18.1849 8.06814 18.1011C8.01828 18.0174 7.96192 17.9689 7.89689 17.9424C7.84703 17.9248 7.76683 17.9182 7.65845 17.9182H7.37231V18.9937H7.38098V18.9915ZM8.59271 19.159V17.7595H8.77263V18.3348H9.4858V17.7595H9.66571V19.159H9.4858V18.5H8.77263V19.159H8.59271ZM9.91933 18.4758C9.91933 18.2422 9.98436 18.0593 10.1079 17.927C10.2315 17.7948 10.3876 17.7265 10.5826 17.7265C10.7127 17.7265 10.8276 17.7595 10.9273 17.819C11.027 17.8785 11.1072 17.9689 11.1657 18.0769C11.2243 18.1849 11.2481 18.3105 11.2481 18.4516C11.2481 18.5926 11.2243 18.7182 11.1657 18.8351C11.1094 18.943 11.027 19.0356 10.9273 19.0929C10.8211 19.1502 10.7149 19.1767 10.5913 19.1767C10.4613 19.1767 10.3464 19.1436 10.238 19.0775C10.1404 19.0114 10.0581 18.9276 10.0082 18.8196C9.95835 18.7116 9.92584 18.5948 9.92584 18.4692L9.91716 18.478L9.91933 18.4758ZM10.1079 18.4758C10.1079 18.6433 10.1491 18.7755 10.238 18.8747C10.3269 18.9739 10.4417 19.0246 10.574 19.0246C10.7127 19.0246 10.8276 18.9739 10.91 18.8747C11.001 18.7755 11.04 18.6411 11.04 18.4582C11.04 18.3414 11.0227 18.2422 10.9837 18.1584C10.9446 18.0747 10.8926 18.0086 10.8189 17.9579C10.7452 17.9072 10.6628 17.8918 10.574 17.8918C10.4439 17.8918 10.3355 17.9336 10.238 18.024C10.1469 18.1166 10.0992 18.2664 10.0992 18.4736H10.1079V18.4758ZM11.4671 19.159V17.7595H11.647V19.0003H12.3276V19.1679H11.4671V19.159ZM12.5487 19.159V17.7595H13.0234C13.1297 17.7595 13.212 17.7683 13.2684 17.7771C13.3508 17.7948 13.4158 17.8278 13.4722 17.8763C13.5459 17.9424 13.6022 18.0174 13.6369 18.1188C13.6716 18.2201 13.6933 18.3259 13.6933 18.4516C13.6933 18.5596 13.6846 18.6521 13.6607 18.7359C13.6369 18.8196 13.6044 18.8857 13.5697 18.943C13.5285 18.9937 13.4873 19.0422 13.4461 19.0687C13.3963 19.1017 13.3486 19.126 13.2814 19.1348C13.2164 19.1524 13.1427 19.159 13.0603 19.159H12.5444H12.5487ZM12.7286 18.9915H13.0234C13.1145 18.9915 13.1882 18.9827 13.2359 18.9673C13.2836 18.9519 13.3269 18.9254 13.3594 18.8924C13.4006 18.8505 13.4331 18.7932 13.457 18.7182C13.4808 18.6433 13.4895 18.5507 13.4895 18.4427C13.4895 18.2929 13.4657 18.1849 13.4158 18.1011C13.3659 18.0174 13.3096 17.9689 13.2445 17.9424C13.1947 17.9248 13.1145 17.9182 13.0061 17.9182H12.72V18.9937H12.7286V18.9915ZM13.9404 19.159V17.7595H14.9397V17.927H14.129V18.3612H14.8898V18.5287H14.129V19.0026H14.9722V19.1701H13.9404V19.1612V19.159ZM15.2258 19.159V17.7595H15.8393C15.9628 17.7595 16.0517 17.7771 16.1189 17.8014C16.1861 17.8256 16.2338 17.8675 16.275 17.9336C16.3161 17.9997 16.3313 18.0659 16.3313 18.1408C16.3313 18.24 16.2988 18.3237 16.2338 18.3898C16.1687 18.456 16.069 18.4978 15.939 18.5221C15.9888 18.5463 16.0213 18.5728 16.0452 18.5882C16.1015 18.6389 16.1514 18.6962 16.1926 18.7711L16.431 19.1546H16.2013L16.0213 18.8637C15.9715 18.78 15.9238 18.7138 15.8913 18.672C15.8588 18.6301 15.8263 18.597 15.8002 18.5794C15.7742 18.5618 15.7439 18.5463 15.7179 18.5463C15.694 18.5375 15.6615 18.5375 15.6203 18.5375H15.4079V19.1612H15.228V19.1524L15.2258 19.159ZM15.4057 18.3766H15.7981C15.8804 18.3766 15.9455 18.3678 15.9953 18.3524C16.0452 18.337 16.0777 18.3105 16.1015 18.2686C16.1254 18.2268 16.1341 18.1849 16.1341 18.143C16.1341 18.0769 16.1102 18.0174 16.0604 17.9755C16.0105 17.9336 15.9368 17.9094 15.8393 17.9094H15.4057V18.3766ZM3.20387 11.9036H3.53986V10.579H3.21254C3.18003 10.579 3.15618 10.5702 3.13884 10.5459C3.115 10.5217 3.10633 10.4952 3.10633 10.471C3.10633 10.4379 3.115 10.4137 3.13884 10.3961C3.16269 10.3718 3.1887 10.363 3.21254 10.363H3.76097V11.9036H3.98207V11.4363C3.98207 11.4033 3.99074 11.379 4.01458 11.3614C4.03843 11.3372 4.06444 11.3283 4.08828 11.3283C4.1208 11.3283 4.14464 11.3372 4.16199 11.3614C4.18583 11.3856 4.1945 11.4121 4.1945 11.4363V12.0116C4.1945 12.0446 4.18583 12.0689 4.16199 12.0865C4.13814 12.1107 4.11213 12.1196 4.08828 12.1196H3.20387C3.17136 12.1196 3.14751 12.1107 3.13017 12.0865C3.10633 12.0623 3.09766 12.0358 3.09766 12.0028C3.09766 11.9697 3.10633 11.9454 3.13017 11.9278C3.15402 11.9036 3.18003 11.8948 3.20387 11.8948V11.9036ZM5.71187 12.1284H4.71257V11.3548C4.71257 11.2975 4.73642 11.238 4.77761 11.1961C4.81879 11.1542 4.87515 11.13 4.93368 11.13H5.60566V10.5878H4.81879C4.78628 10.5878 4.76243 10.579 4.73642 10.5547C4.71041 10.5305 4.7039 10.5041 4.7039 10.4798C4.7039 10.4468 4.71258 10.4225 4.73642 10.4049C4.76026 10.3806 4.78628 10.3718 4.81879 10.3718H5.60566C5.66202 10.3718 5.72054 10.3961 5.76173 10.4379C5.80292 10.4798 5.82676 10.5371 5.82676 10.5966V11.1388C5.82676 11.2049 5.80292 11.2556 5.76173 11.2975C5.72054 11.3394 5.66418 11.3636 5.60566 11.3636H4.93368V11.9124H5.71187C5.74439 11.9124 5.76823 11.9212 5.78557 11.9455C5.80942 11.9697 5.81809 11.9961 5.81809 12.0204C5.81809 12.0534 5.80942 12.0777 5.78557 12.0953C5.76173 12.1196 5.73572 12.1284 5.71187 12.1284ZM7.43951 10.5878V11.0044C7.43951 11.1035 7.407 11.1785 7.34847 11.238C7.40483 11.3041 7.43951 11.379 7.43951 11.4628V11.9036C7.43951 11.9609 7.41567 12.0204 7.37448 12.0623C7.3333 12.1041 7.27694 12.1284 7.21841 12.1284H6.44021C6.4077 12.1284 6.38385 12.1196 6.36651 12.0953C6.34267 12.0711 6.334 12.0446 6.334 12.0204C6.334 11.9873 6.34267 11.9631 6.36651 11.9455C6.39036 11.9212 6.41637 11.9124 6.44021 11.9124H7.21841V11.4716C7.21841 11.4385 7.20974 11.4143 7.18589 11.3878C7.16205 11.3614 7.13604 11.3548 7.11219 11.3548H6.66999C6.63747 11.3548 6.61363 11.346 6.59629 11.3217C6.57244 11.2975 6.56377 11.271 6.56377 11.238C6.56377 11.2049 6.57244 11.1807 6.59629 11.163C6.62013 11.1388 6.64614 11.13 6.66999 11.13H7.11219C7.14471 11.13 7.16855 11.1212 7.18589 11.0969C7.20974 11.0727 7.21841 11.0462 7.21841 11.022V10.5878H6.43154C6.39903 10.5878 6.37518 10.579 6.35784 10.5547C6.334 10.5305 6.32533 10.5041 6.32533 10.4798C6.32533 10.4468 6.334 10.4225 6.35784 10.4049C6.38169 10.3806 6.4077 10.3718 6.44021 10.3718H7.22708C7.28344 10.3718 7.34197 10.3961 7.38315 10.4379C7.42434 10.4798 7.44818 10.5371 7.44818 10.5966L7.43951 10.5878ZM8.66858 12.0204V11.5531H8.00527V10.4776C8.00527 10.4445 8.01395 10.4203 8.03779 10.3939C8.06163 10.3674 8.08765 10.3608 8.12016 10.3608C8.15268 10.3608 8.17652 10.3696 8.19386 10.3939C8.21771 10.4181 8.22638 10.4445 8.22638 10.4776V11.3283H8.66858V10.6694C8.66858 10.6363 8.67725 10.612 8.7011 10.5856C8.72494 10.5592 8.75096 10.5525 8.7748 10.5525C8.80731 10.5525 8.83116 10.5614 8.8485 10.5856C8.87234 10.6098 8.88102 10.6363 8.88102 10.6694V11.3283C8.91353 11.3283 8.93738 11.3372 8.95472 11.3614C8.97856 11.3856 8.98723 11.4121 8.98723 11.4451C8.98723 11.4782 8.97856 11.5025 8.95472 11.5289C8.93087 11.5553 8.90486 11.562 8.88102 11.562V12.0292C8.88102 12.0623 8.87234 12.0865 8.8485 12.1041C8.82466 12.1284 8.79864 12.1372 8.7748 12.1372C8.74228 12.1372 8.71844 12.1284 8.7011 12.1041C8.67725 12.0799 8.66858 12.0534 8.66858 12.0292V12.0204ZM10.7821 11.9124H11.2893V11.3636H10.626V10.3718H11.4042C11.4367 10.3718 11.4606 10.3806 11.4779 10.4049C11.5017 10.4291 11.5104 10.4556 11.5104 10.4798C11.5104 10.5129 11.5017 10.5371 11.4779 10.5547C11.454 10.579 11.428 10.5878 11.4042 10.5878H10.8558V11.1366H11.298C11.3543 11.1366 11.4129 11.1608 11.454 11.2027C11.4952 11.2446 11.5191 11.3019 11.5191 11.3614V11.9102C11.5191 11.9675 11.4952 12.027 11.454 12.0689C11.4129 12.1107 11.3565 12.135 11.298 12.135H10.7907C10.7409 12.135 10.6997 12.1262 10.6433 12.1019L10.4786 12.0358C10.4374 12.0182 10.4136 11.9851 10.4136 11.9278C10.4136 11.8948 10.4222 11.8705 10.4461 11.8529C10.4634 11.8286 10.4873 11.8198 10.5198 11.8198C10.5436 11.8198 10.5696 11.8286 10.5935 11.8375L10.7409 11.8948C10.7582 11.9036 10.7734 11.9124 10.7972 11.9124H10.7799H10.7821ZM12.1087 10.3718H12.2149C12.2474 10.3718 12.2713 10.3806 12.2886 10.4049C12.3124 10.4291 12.3211 10.4556 12.3211 10.4798C12.3211 10.5129 12.3124 10.5371 12.2886 10.5547C12.2648 10.579 12.2387 10.5878 12.2149 10.5878V11.3283H12.9931C13.0256 11.3283 13.0495 11.3372 13.0668 11.3614C13.0906 11.3856 13.0993 11.4121 13.0993 11.4451V12.0204C13.0993 12.0534 13.0906 12.0777 13.0668 12.0953C13.043 12.1196 13.0169 12.1284 12.9844 12.1284H12.1C12.0675 12.1284 12.0437 12.1196 12.0176 12.0953C11.9916 12.0711 11.9851 12.0446 11.9851 12.0204V10.4798C11.9851 10.4468 11.9938 10.4225 12.0176 10.4049C12.0415 10.3806 12.0675 10.3718 12.1 10.3718H12.1087ZM12.2149 11.562V11.9212H12.8782V11.562H12.2149ZM13.6087 10.579V10.4864C13.6087 10.4534 13.6174 10.4291 13.6412 10.4115C13.6651 10.3872 13.6911 10.3784 13.7149 10.3784H14.7142V11.0705C14.7142 11.1035 14.6969 11.1366 14.673 11.163L14.272 11.5135V12.038C14.272 12.0711 14.2634 12.0953 14.2395 12.1218C14.2157 12.1482 14.1897 12.1548 14.1658 12.1548C14.1333 12.1548 14.1095 12.146 14.0834 12.1218C14.0574 12.0975 14.0509 12.0711 14.0509 12.0468V11.4804C14.0509 11.4385 14.0683 11.4055 14.0921 11.3812L14.5018 11.0308V10.6143H13.8385C13.8211 10.6804 13.7886 10.7068 13.7323 10.7068C13.6998 10.7068 13.6759 10.698 13.6586 10.6738C13.6347 10.6495 13.6261 10.6231 13.6261 10.5988L13.6087 10.5812V10.579ZM15.2301 11.9124V11.3636C15.2301 11.3063 15.254 11.2468 15.2952 11.2049C15.3364 11.163 15.3927 11.1388 15.4512 11.1388V10.4798C15.4512 10.4468 15.4599 10.4225 15.4838 10.4049C15.5076 10.3806 15.5336 10.3718 15.5661 10.3718H16.0083C16.0408 10.3718 16.0647 10.3806 16.082 10.4049C16.1059 10.4291 16.1146 10.4556 16.1146 10.4798V11.1388C16.1709 11.1388 16.2294 11.163 16.2706 11.2049C16.3118 11.2468 16.3357 11.3041 16.3357 11.3636V11.9124C16.3357 11.9697 16.3118 12.0292 16.2706 12.0711C16.2294 12.113 16.1731 12.1372 16.1146 12.1372H15.4512C15.3862 12.1372 15.3364 12.113 15.2952 12.0711C15.254 12.0204 15.2301 11.9719 15.2301 11.9124ZM15.6723 10.5966V11.1454H15.8934V10.5966H15.6723ZM15.4512 11.3702V11.919H16.1146V11.3702H15.4512ZM18.6637 12.1372H18.5575C18.525 12.1372 18.5012 12.1284 18.4838 12.1041C18.46 12.0799 18.4513 12.0534 18.4513 12.0292C18.4513 11.9961 18.46 11.9719 18.4838 11.9543C18.5077 11.93 18.5337 11.9212 18.5575 11.9212V11.1873H17.7793C17.7468 11.1873 17.723 11.1785 17.7056 11.1542C17.6818 11.13 17.6731 11.1035 17.6731 11.0793V10.4952C17.6731 10.4622 17.6818 10.4379 17.7056 10.4203C17.7295 10.3961 17.7555 10.3872 17.7793 10.3872H18.6637C18.6963 10.3872 18.7201 10.3961 18.7374 10.4203C18.7613 10.4445 18.77 10.471 18.77 10.4952V12.0358C18.77 12.0689 18.7613 12.0931 18.7374 12.1107C18.7136 12.135 18.6876 12.1438 18.6637 12.1438V12.135V12.1372ZM18.5575 10.9537V10.6032H17.8942V10.9537H18.5575ZM19.2859 11.919V11.3702C19.2859 11.3129 19.3097 11.2534 19.3509 11.2115C19.3921 11.1697 19.4484 11.1454 19.507 11.1454V10.4864C19.507 10.4534 19.5156 10.4291 19.5395 10.4115C19.5633 10.3872 19.5893 10.3784 19.6219 10.3784H20.0641C20.0966 10.3784 20.1204 10.3872 20.1378 10.4115C20.1616 10.4357 20.1703 10.4622 20.1703 10.4864V11.1454C20.2266 11.1454 20.2852 11.1697 20.3263 11.2115C20.3675 11.2534 20.3914 11.3107 20.3914 11.3702V11.919C20.3914 11.9763 20.3675 12.0358 20.3263 12.0777C20.2852 12.1196 20.2288 12.1438 20.1703 12.1438H19.507C19.4419 12.1438 19.3921 12.1196 19.3509 12.0777C19.3097 12.027 19.2859 11.9785 19.2859 11.919ZM19.7281 10.6032V11.152H19.9492V10.6032H19.7281ZM19.507 11.3768V11.9256H20.1703V11.3768H19.507ZM20.9008 10.5856V10.493C20.9008 10.46 20.9095 10.4357 20.9333 10.4181C20.9571 10.3939 20.9832 10.385 21.007 10.385H22.0063V11.0771C22.0063 11.1101 21.989 11.1432 21.9651 11.1697L21.5641 11.5201V12.0446C21.5641 12.0777 21.5554 12.1019 21.5316 12.1284C21.5077 12.1548 21.4817 12.1614 21.4579 12.1614C21.4254 12.1614 21.4015 12.1526 21.3755 12.1284C21.3495 12.1041 21.343 12.0777 21.343 12.0534V11.487C21.343 11.4451 21.3603 11.4121 21.3842 11.3878L21.7939 11.0374V10.6209H21.1306C21.1132 10.687 21.0807 10.7134 21.0243 10.7134C20.9918 10.7134 20.968 10.7046 20.9506 10.6804C20.9268 10.6561 20.9181 10.6297 20.9181 10.6054L20.9008 10.5878V10.5856ZM22.6371 10.3784H22.7433C22.7758 10.3784 22.7997 10.3872 22.817 10.4115C22.8409 10.4357 22.8495 10.4622 22.8495 10.4864C22.8495 10.5195 22.8409 10.5437 22.817 10.5614C22.7932 10.5856 22.7671 10.5944 22.7433 10.5944V11.335H23.5215C23.554 11.335 23.5779 11.3438 23.5952 11.368C23.619 11.3923 23.6277 11.4187 23.6277 11.4518V12.027C23.6277 12.0601 23.619 12.0843 23.5952 12.1019C23.5714 12.1262 23.5453 12.135 23.5128 12.135H22.6284C22.5959 12.135 22.5721 12.1262 22.546 12.1019C22.52 12.0777 22.5135 12.0512 22.5135 12.027V10.4864C22.5135 10.4534 22.5222 10.4291 22.546 10.4115C22.5699 10.3872 22.5959 10.3784 22.6284 10.3784H22.6371ZM22.7433 11.5686V11.9278H23.4066V11.5686H22.7433ZM25.3575 11.9278H25.8648V11.379H25.2015V10.3872H25.9796C26.0122 10.3872 26.036 10.3961 26.0533 10.4203C26.0772 10.4445 26.0859 10.471 26.0859 10.4952C26.0859 10.5283 26.0772 10.5525 26.0533 10.5702C26.0295 10.5944 26.0035 10.6032 25.9796 10.6032H25.4312V11.152H25.8734C25.9298 11.152 25.9883 11.1763 26.0295 11.2181C26.0707 11.26 26.0945 11.3173 26.0945 11.3768V11.9256C26.0945 11.9829 26.0707 12.0424 26.0295 12.0843C25.9883 12.1262 25.932 12.1504 25.8734 12.1504H25.3662C25.3163 12.1504 25.2751 12.1416 25.2188 12.1174L25.054 12.0512C25.0129 12.0336 24.989 12.0005 24.989 11.9432C24.989 11.9102 24.9977 11.8859 25.0215 11.8683C25.0389 11.8441 25.0627 11.8353 25.0952 11.8353C25.1191 11.8353 25.1451 11.8441 25.1689 11.8529L25.3163 11.9102C25.3337 11.919 25.3489 11.9278 25.3727 11.9278H25.3554H25.3575ZM27.2911 12.0358V11.5686H26.6278V10.493C26.6278 10.46 26.6364 10.4357 26.6603 10.4093C26.6841 10.3828 26.7102 10.3762 26.7427 10.3762C26.7752 10.3762 26.799 10.385 26.8164 10.4093C26.8402 10.4335 26.8489 10.46 26.8489 10.493V11.3438H27.2911V10.6848C27.2911 10.6517 27.2998 10.6275 27.3236 10.601C27.3474 10.5746 27.3735 10.568 27.3973 10.568C27.4298 10.568 27.4537 10.5768 27.471 10.601C27.4949 10.6253 27.5035 10.6517 27.5035 10.6848V11.3438C27.536 11.3438 27.5599 11.3526 27.5772 11.3768C27.6011 11.4011 27.6097 11.4275 27.6097 11.4606C27.6097 11.4936 27.6011 11.5179 27.5772 11.5443C27.5534 11.5708 27.5274 11.5774 27.5035 11.5774V12.0446C27.5035 12.0777 27.4949 12.1019 27.471 12.1196C27.4472 12.1438 27.4212 12.1526 27.3973 12.1526C27.3648 12.1526 27.3409 12.1438 27.3236 12.1196C27.2998 12.0953 27.2911 12.0689 27.2911 12.0446V12.0358ZM29.2984 10.6032V11.0198C29.2984 11.119 29.2658 11.1939 29.2073 11.2534C29.2637 11.3195 29.2984 11.3945 29.2984 11.4782V11.919C29.2984 11.9763 29.2745 12.0358 29.2333 12.0777C29.1921 12.1196 29.1358 12.1438 29.0773 12.1438H28.2991C28.2665 12.1438 28.2427 12.135 28.2254 12.1107C28.2015 12.0865 28.1928 12.0601 28.1928 12.0358C28.1928 12.0028 28.2015 11.9785 28.2254 11.9609C28.2492 11.9366 28.2752 11.9278 28.2991 11.9278H29.0773V11.487C29.0773 11.454 29.0686 11.4297 29.0447 11.4033C29.0209 11.3768 28.9949 11.3702 28.971 11.3702H28.5288C28.4963 11.3702 28.4725 11.3614 28.4551 11.3372C28.4313 11.3129 28.4226 11.2865 28.4226 11.2534C28.4226 11.2203 28.4313 11.1961 28.4551 11.1785C28.479 11.1542 28.505 11.1454 28.5288 11.1454H28.971C29.0036 11.1454 29.0274 11.1366 29.0447 11.1123C29.0686 11.0881 29.0773 11.0617 29.0773 11.0374V10.6032H28.2904C28.2579 10.6032 28.234 10.5944 28.2167 10.5702C28.1928 10.5459 28.1842 10.5195 28.1842 10.4952C28.1842 10.4622 28.1928 10.4379 28.2167 10.4203C28.2405 10.3961 28.2665 10.3872 28.2991 10.3872H29.0859C29.1423 10.3872 29.2008 10.4115 29.242 10.4534C29.2832 10.4952 29.307 10.5525 29.307 10.6121L29.2984 10.6032ZM30.8049 12.1438H29.8056V11.3702C29.8056 11.3129 29.8294 11.2534 29.8706 11.2115C29.9118 11.1697 29.9682 11.1454 30.0267 11.1454H30.6987V10.6032H29.9118C29.8793 10.6032 29.8554 10.5944 29.8294 10.5702C29.8034 10.5459 29.7969 10.5195 29.7969 10.4952C29.7969 10.4622 29.8056 10.4379 29.8294 10.4203C29.8533 10.3961 29.8793 10.3872 29.9118 10.3872H30.6987C30.755 10.3872 30.8136 10.4115 30.8547 10.4534C30.8959 10.4952 30.9198 10.5525 30.9198 10.6121V11.1542C30.9198 11.2203 30.8959 11.271 30.8547 11.3129C30.8136 11.3548 30.7572 11.379 30.6987 11.379H30.0267V11.9278H30.8049C30.8374 11.9278 30.8613 11.9366 30.8786 11.9609C30.9024 11.9851 30.9111 12.0116 30.9111 12.0358C30.9111 12.0689 30.9024 12.0931 30.8786 12.1107C30.8547 12.135 30.8287 12.1438 30.8049 12.1438ZM3.60489 14.2089H3.44882V13.5764C3.44882 13.5015 3.44882 13.4441 3.45749 13.4023C3.44882 13.4111 3.43365 13.4265 3.4163 13.4353C3.39896 13.453 3.35127 13.486 3.2689 13.561L3.1952 13.4618L3.47483 13.237H3.60489V14.2111V14.2089ZM4.57168 14.2089H3.91704V14.0921L4.16199 13.8431C4.23569 13.7681 4.28554 13.7108 4.30939 13.6844C4.33323 13.6513 4.35057 13.6271 4.35924 13.5918C4.36791 13.5676 4.37659 13.5345 4.37659 13.4992C4.37659 13.4574 4.35924 13.4243 4.3354 13.3913C4.31155 13.367 4.27037 13.3494 4.22918 13.3494C4.188 13.3494 4.15548 13.3582 4.12297 13.367C4.09045 13.3846 4.04927 13.4089 3.99941 13.4419L3.91704 13.3428C3.9734 13.2921 4.02325 13.2678 4.07311 13.2436C4.12297 13.226 4.17933 13.2193 4.23785 13.2193C4.3289 13.2193 4.4026 13.2436 4.45029 13.2943C4.50665 13.345 4.53266 13.4023 4.53266 13.486C4.53266 13.5279 4.52399 13.5698 4.50881 13.6116C4.49364 13.6535 4.46763 13.6954 4.43511 13.7373C4.4026 13.7792 4.35274 13.8365 4.27037 13.9048L4.10563 14.0723V14.0811H4.56517V14.2221L4.57384 14.2133L4.57168 14.2089ZM5.30002 13.4596C5.30002 13.5169 5.28267 13.5764 5.25016 13.6183C5.21764 13.6601 5.16779 13.6844 5.10276 13.702V13.7108C5.17646 13.7196 5.23282 13.7439 5.274 13.7858C5.31519 13.8276 5.33036 13.8783 5.33036 13.9444C5.33036 14.037 5.29785 14.1119 5.23282 14.1604C5.16779 14.2089 5.07674 14.2354 4.95319 14.2354C4.84697 14.2354 4.75593 14.2177 4.68223 14.1847V14.0436C4.72341 14.0613 4.7646 14.0767 4.81229 14.0943C4.86214 14.1031 4.90333 14.1119 4.94235 14.1119C5.01605 14.1119 5.07241 14.0943 5.10709 14.0701C5.14177 14.0458 5.16345 13.9951 5.16345 13.9378C5.16345 13.8871 5.14611 13.8453 5.10709 13.821C5.06807 13.7968 5.00088 13.788 4.9185 13.788H4.83613V13.6623H4.9185C5.07458 13.6623 5.14828 13.6116 5.14828 13.5037C5.14828 13.4618 5.13094 13.4287 5.10709 13.4045C5.08325 13.3802 5.04206 13.3714 4.99221 13.3714C4.95969 13.3714 4.9185 13.3802 4.88599 13.389C4.85347 13.3979 4.81229 13.4221 4.76243 13.4464L4.68873 13.3384C4.77977 13.2722 4.87732 13.2392 4.99221 13.2392C5.08975 13.2392 5.16345 13.2634 5.22198 13.3053C5.28051 13.3472 5.30435 13.4045 5.30435 13.4794L5.29568 13.4618L5.30002 13.4596ZM6.13674 14.0018H6.00668V14.2177H5.85928V14.0018H5.41707V13.8849L5.85928 13.2348H6.00668V13.8673H6.13674V13.9995V14.0018ZM5.85711 13.8695V13.6271C5.85711 13.5433 5.85711 13.4684 5.86578 13.4111H5.85711C5.83977 13.4441 5.82459 13.4772 5.80075 13.5191L5.5623 13.8695H5.85711ZM13.7626 15.7517H14.0574V14.5946H13.7713C13.7474 14.5946 13.7214 14.5858 13.7063 14.5704C13.6911 14.5549 13.6824 14.5285 13.6824 14.5043C13.6824 14.48 13.6911 14.4536 13.7063 14.4381C13.7214 14.4227 13.7474 14.4139 13.7713 14.4139H14.2547V15.7715H14.4519V15.3638C14.4519 15.3396 14.4606 15.3131 14.4758 15.2977C14.491 15.2823 14.517 15.2734 14.5408 15.2734C14.5647 15.2734 14.5907 15.2823 14.6058 15.2977C14.621 15.3131 14.6297 15.3396 14.6297 15.3638V15.8729C14.6297 15.8972 14.621 15.9236 14.6058 15.939C14.5907 15.9545 14.5647 15.9633 14.5408 15.9633H13.7626C13.7388 15.9633 13.7128 15.9545 13.6976 15.9302C13.6803 15.9126 13.6737 15.8883 13.6737 15.8641C13.6737 15.8399 13.6824 15.8134 13.6976 15.798C13.7128 15.7826 13.7388 15.7737 13.7626 15.7737V15.7561V15.7517ZM15.9671 15.9523H15.0914V15.269C15.0914 15.2117 15.1087 15.1699 15.1478 15.128C15.1868 15.0861 15.2301 15.0707 15.2865 15.0707H15.8761V14.5968H15.189C15.1651 14.5968 15.1391 14.588 15.1239 14.5726C15.1087 14.5572 15.1001 14.5307 15.1001 14.5065C15.1001 14.4822 15.1087 14.4558 15.1239 14.4403C15.1391 14.4249 15.1651 14.4161 15.189 14.4161H15.8761C15.9325 14.4161 15.9737 14.4337 16.0148 14.4734C16.056 14.5131 16.0712 14.5571 16.0712 14.6145V15.0883C16.0712 15.1456 16.0539 15.1875 16.0148 15.2294C15.9758 15.2712 15.9325 15.2867 15.8761 15.2867H15.2865V15.7693H15.9737C15.9975 15.7693 16.0235 15.7781 16.0387 15.7936C16.0539 15.809 16.0712 15.8355 16.0712 15.8597C16.0712 15.8839 16.0625 15.9104 16.0387 15.9258C16.0213 15.9434 15.9975 15.9501 15.9737 15.9501H15.965L15.9671 15.9523ZM17.4824 14.5704L16.6955 15.9192C16.6781 15.9368 16.663 15.9523 16.6391 15.9523C16.6153 15.9523 16.5893 15.9434 16.5654 15.928C16.5416 15.9126 16.5329 15.8861 16.5329 15.8619C16.5329 15.8377 16.5416 15.8112 16.5568 15.787L17.3436 14.4381C17.361 14.4139 17.3761 14.4051 17.4 14.4051C17.4238 14.4051 17.4498 14.4139 17.465 14.4293C17.4889 14.447 17.4975 14.4712 17.4975 14.4954C17.4975 14.5197 17.4889 14.5461 17.4737 14.5792L17.4824 14.5704ZM18.0221 15.7539H18.3169V14.5968H18.0308C18.0069 14.5968 17.9809 14.588 17.9657 14.5726C17.9506 14.5572 17.9419 14.5307 17.9419 14.5065C17.9419 14.4822 17.9506 14.4558 17.9657 14.4403C17.9809 14.4249 18.0069 14.4161 18.0308 14.4161H18.5142V15.7737H18.7114V15.366C18.7114 15.3418 18.7201 15.3153 18.7353 15.2999C18.7504 15.2845 18.7765 15.2756 18.8003 15.2756C18.8241 15.2756 18.8502 15.2845 18.8653 15.2999C18.8805 15.3153 18.8892 15.3418 18.8892 15.366V15.8751C18.8892 15.8994 18.8805 15.9258 18.8653 15.9412C18.8502 15.9567 18.8241 15.9655 18.8003 15.9655H18.0221C17.9983 15.9655 17.9722 15.9567 17.9571 15.9324C17.9397 15.9148 17.9332 15.8906 17.9332 15.8663C17.9332 15.8421 17.9419 15.8156 17.9571 15.8002C17.9722 15.7848 17.9983 15.7759 18.0221 15.7759V15.7583V15.7539ZM19.3487 14.5792V14.4954C19.3487 14.4712 19.3574 14.4447 19.3726 14.4293C19.3877 14.4139 19.4138 14.4051 19.4376 14.4051H20.3133V15.0134C20.3133 15.0464 20.3047 15.0707 20.2808 15.0971L19.9275 15.4057V15.8641C19.9275 15.8883 19.9188 15.9148 19.9036 15.939C19.8863 15.9567 19.8625 15.9721 19.8386 15.9721C19.8148 15.9721 19.7888 15.9633 19.7736 15.939C19.7562 15.9214 19.7411 15.8972 19.7411 15.8729V15.3726C19.7411 15.3307 19.7497 15.3065 19.7736 15.2889L20.1334 14.9803V14.6145H19.5525C19.5351 14.6718 19.5026 14.6982 19.4549 14.6982C19.4311 14.6982 19.4051 14.6894 19.3899 14.674C19.3747 14.6585 19.3661 14.6321 19.3661 14.6078L19.3487 14.5836V14.5792Z" fill="#FEFEFE"/>
<path d="M7.53056 3.83936H3.8997C3.45196 3.83936 3.08899 4.2084 3.08899 4.66364V7.03731C3.08899 7.49255 3.45196 7.8616 3.8997 7.8616H7.53056C7.9783 7.8616 8.34127 7.49255 8.34127 7.03731V4.66364C8.34127 4.2084 7.9783 3.83936 7.53056 3.83936Z" fill="#727271"/>
<path d="M7.4806 3.8988H3.95813C3.52356 3.8988 3.17126 4.25699 3.17126 4.69884V7.0064C3.17126 7.44825 3.52356 7.80644 3.95813 7.80644H7.4806C7.91518 7.80644 8.26747 7.44825 8.26747 7.0064V4.69884C8.26747 4.25699 7.91518 3.8988 7.4806 3.8988Z" fill="url(#paint2_linear_74_7314)"/>
<path fill-rule="evenodd" clip-rule="evenodd" d="M3.17126 6.23949H8.26747V6.33867H3.17126V6.23949ZM3.17126 5.38214H8.26747V5.48132H3.17126V5.38214ZM3.17126 4.55786H8.26747V4.65704H3.17126V4.55786ZM3.17126 7.03953H8.26747V7.13871H3.17126V7.03953Z" fill="#727271"/>
<path fill-rule="evenodd" clip-rule="evenodd" d="M5.66199 3.8988H5.77687V7.86374H5.66199V3.8988Z" fill="#727271"/>
</g>
<defs>
<linearGradient id="paint0_linear_74_7314" x1="20.6553" y1="4.49512" x2="20.6553" y2="27.7778" gradientUnits="userSpaceOnUse">
<stop stop-color="#AC2F2B"/>
<stop offset="1" stop-color="#8C2421"/>
</linearGradient>
<linearGradient id="paint1_linear_74_7314" x1="34.1928" y1="2.36794" x2="6.65965" y2="29.4477" gradientUnits="userSpaceOnUse">
<stop stop-color="#8C2421"/>
<stop offset="1" stop-color="#A42C28"/>
</linearGradient>
<linearGradient id="paint2_linear_74_7314" x1="6.01474" y1="10.6883" x2="11.4079" y2="10.6883" gradientUnits="userSpaceOnUse">
<stop stop-color="#B2B3B3"/>
<stop offset="1" stop-color="#D9DADA"/>
</linearGradient>
<clipPath id="clip0_74_7314">
<rect width="34" height="22" fill="white"/>
</clipPath>
</defs>
</svg>
