<svg width="153" height="49" viewBox="0 0 153 49" fill="none" xmlns="http://www.w3.org/2000/svg">
<g filter="url(#filter0_d_6_44)">
<path d="M72.4419 18.13L63.3819 30.34H69.2019L72.6219 30.1L72.8019 30.34L72.4119 34.12L67.6419 34H60.2619L57.6519 34.15V30.67L66.8019 18.31H61.2819L57.8619 18.58L57.6819 18.37L58.0419 14.59L62.1819 14.65H70.4019L72.4419 14.62V18.13ZM88.5195 30.97L88.0995 33.46C87.2595 34 86.3995 34.27 85.5195 34.27C84.3595 34.03 83.5595 33.24 83.1195 31.9H82.8195C81.6595 33.06 80.4895 33.82 79.3095 34.18C77.8095 34.18 76.6595 33.84 75.8595 33.16C75.0595 32.46 74.6595 31.47 74.6595 30.19L74.7495 26.83L74.5995 20.26L79.1595 19.9L79.0995 28.45C79.0795 29.75 79.5995 30.4 80.6595 30.4C81.0195 30.4 81.3595 30.33 81.6795 30.19C81.9995 30.05 82.3495 29.82 82.7295 29.5V20.26L87.2295 19.9L86.9595 30.04C86.9595 30.32 86.9995 30.52 87.0795 30.64C87.1795 30.76 87.3295 30.82 87.5295 30.82C87.7095 30.82 87.9295 30.78 88.1895 30.7L88.5195 30.97ZM98.9712 25.63C99.0112 24.25 98.4512 23.56 97.2912 23.56C96.5912 23.56 95.8312 23.86 95.0112 24.46V27.79L95.2212 34H90.4812L90.6912 28.27L90.5112 20.26L95.0412 19.9V21.97H95.2212C96.3012 20.95 97.5012 20.22 98.8212 19.78C100.321 19.78 101.461 20.13 102.241 20.83C103.041 21.51 103.431 22.49 103.411 23.77L103.291 27.79L103.471 34H98.7312L98.9712 25.63ZM117.846 27.76L109.986 27.82C110.126 28.86 110.486 29.63 111.066 30.13C111.646 30.63 112.466 30.88 113.526 30.88C114.586 30.88 115.986 30.57 117.726 29.95L118.086 30.19L117.366 33.58C115.766 34.08 114.316 34.33 113.016 34.33C110.716 34.33 108.906 33.68 107.586 32.38C106.286 31.08 105.636 29.29 105.636 27.01C105.636 24.73 106.266 22.94 107.526 21.64C108.786 20.32 110.496 19.66 112.656 19.66C114.516 19.66 115.956 20.16 116.976 21.16C118.016 22.16 118.536 23.55 118.536 25.33C118.536 25.91 118.476 26.52 118.356 27.16L117.846 27.76ZM114.426 24.82C114.426 23.44 113.826 22.75 112.626 22.75C111.946 22.75 111.386 22.98 110.946 23.44C110.506 23.88 110.206 24.52 110.046 25.36L114.366 25.24L114.426 24.82ZM132.143 27.76L124.283 27.82C124.423 28.86 124.783 29.63 125.363 30.13C125.943 30.63 126.763 30.88 127.823 30.88C128.883 30.88 130.283 30.57 132.023 29.95L132.383 30.19L131.663 33.58C130.063 34.08 128.613 34.33 127.313 34.33C125.013 34.33 123.203 33.68 121.883 32.38C120.583 31.08 119.933 29.29 119.933 27.01C119.933 24.73 120.563 22.94 121.823 21.64C123.083 20.32 124.793 19.66 126.953 19.66C128.813 19.66 130.253 20.16 131.273 21.16C132.313 22.16 132.833 23.55 132.833 25.33C132.833 25.91 132.773 26.52 132.653 27.16L132.143 27.76ZM128.723 24.82C128.723 23.44 128.123 22.75 126.923 22.75C126.243 22.75 125.683 22.98 125.243 23.44C124.803 23.88 124.503 24.52 124.343 25.36L128.663 25.24L128.723 24.82ZM139.545 27.79L139.755 34H135.015L135.255 28.24L135.075 13.27L139.785 12.94L139.545 27.79ZM144.105 26.26C145.125 28.02 146.605 30.34 148.545 33.22L148.515 33.7C147.475 33.92 145.995 34.13 144.075 34.33L143.595 34.09C141.995 31.63 140.655 29.16 139.575 26.68V26.38L142.665 21.52L143.355 19.96H148.275L144.105 26.26Z" fill="#1A153B"/>
</g>
<g clip-path="url(#clip0_6_44)">
<path d="M25.8316 29.8818L17.2642 20.9286C16.0695 19.6775 15.4099 18.0179 15.4099 16.2491C15.4099 14.4803 16.0695 12.8182 17.2642 11.5697C18.0583 10.7399 19.0614 10.1442 20.1665 9.85029L20.9481 9.6422C20.9481 7.47023 20.9481 4.12254 20.9456 3.26156V2L19.7508 2.18208C16.8386 2.62948 14.1977 4.01329 12.1169 6.19046C9.54564 8.87746 8.12936 12.4514 8.12936 16.2491C8.12936 20.0468 9.54564 23.6208 12.1169 26.3078L20.6842 35.261C21.3712 35.9789 22.2847 36.3743 23.2579 36.3743C24.2311 36.3743 25.1421 35.9789 25.8316 35.261C27.2504 33.7783 27.2504 31.3645 25.8316 29.8818Z" fill="#148EFF"/>
<path d="M39.9347 15.1436L31.3673 6.19045C29.7121 4.46328 27.6412 3.20432 25.3711 2.55143L24.0519 2.17166V10.0558L24.6219 10.3575C25.2168 10.6748 25.7545 11.0806 26.2199 11.5696L34.7873 20.5228C35.4743 21.2407 36.3903 21.6361 37.361 21.6361C38.3317 21.6361 39.2477 21.2407 39.9347 20.5228C41.3535 19.0402 41.3535 16.6263 39.9347 15.1436Z" fill="#148EFF"/>
<path style="mix-blend-mode:multiply" opacity="0.3" d="M26.0805 30.1705C26.0034 30.0717 25.9187 29.9754 25.8316 29.8818L17.2643 20.9286C16.0695 19.6774 15.4099 18.0179 15.4099 16.2491C15.4099 14.4803 16.0695 12.8182 17.2643 11.5696C17.3638 11.4656 17.4659 11.3668 17.5729 11.2705C18.3122 10.5968 19.2008 10.1078 20.1665 9.85028L20.9481 9.64219C20.9481 8.24536 20.9481 6.46617 20.9481 6.00837V4.69739L19.7135 4.93669C17.5256 5.36328 15.5344 6.46097 13.9563 8.1101C9.66264 12.5971 9.66264 19.9011 13.9563 24.3907L24.9878 35.9191C25.167 35.8176 25.3363 35.7006 25.4956 35.5679L25.5877 35.4847H25.5977C25.6773 35.4118 25.757 35.339 25.8316 35.261C27.1608 33.8694 27.2454 31.661 26.0805 30.1705Z" fill="#1A153B"/>
<path style="mix-blend-mode:multiply" opacity="0.3" d="M35.0611 20.783C35.1631 20.8714 35.2727 20.952 35.3847 21.0275C35.9671 21.4228 36.6491 21.6361 37.361 21.6361C38.3317 21.6361 39.2452 21.2408 39.9322 20.5254L39.9421 20.515C40.196 20.2497 40.4001 19.9532 40.5644 19.6384L29.5329 8.11012C28.368 6.89278 26.9915 5.98238 25.4483 5.40752L24.0569 4.88989V10.0532L24.6269 10.3549C25.2218 10.6723 25.7594 11.078 26.2249 11.5671L34.7923 20.5202C34.8794 20.6113 34.969 20.6945 35.0611 20.7752C35.0611 20.7752 35.0661 20.7778 35.0686 20.7804L35.0611 20.783Z" fill="#1A153B"/>
<path d="M20.3756 38.6347C19.7732 38.3121 19.2356 37.9064 18.7776 37.4277L10.2102 28.4746C9.52324 27.7566 8.60975 27.3613 7.63652 27.3613C6.6633 27.3613 5.74981 27.7566 5.06283 28.4746C3.64406 29.9572 3.64406 32.3711 5.06283 33.8538L13.6302 42.8069C15.2904 44.5419 17.3638 45.8009 19.6239 46.4512L20.9431 46.8309V38.939L20.3756 38.6347Z" fill="#148EFF"/>
<path d="M32.8807 22.6896L24.3133 13.7364C23.6263 13.0185 22.7128 12.6231 21.7396 12.6231C20.7664 12.6231 19.8529 13.0185 19.1659 13.7364C17.7496 15.2191 17.7496 17.6303 19.1659 19.1156L27.7333 28.0688C28.928 29.3173 29.5876 30.9795 29.5876 32.7483C29.5876 34.517 28.928 36.1792 27.7333 37.4277C26.9343 38.2627 25.9337 38.8584 24.836 39.1497L24.0519 39.3578V46.9974L25.2442 46.8153C28.1539 46.3731 30.7948 44.9841 32.8807 42.8043C35.4519 40.1173 36.8682 36.5459 36.8682 32.7457C36.8682 28.9454 35.4519 25.374 32.8807 22.687V22.6896Z" fill="#148EFF"/>
<path style="mix-blend-mode:multiply" opacity="0.3" d="M20.3756 38.6347C19.7732 38.3121 19.2356 37.9064 18.7776 37.4277L10.2102 28.4746C9.52326 27.7566 8.60978 27.3613 7.63655 27.3613C7.51707 27.3613 7.3976 27.3665 7.28061 27.3795C7.24079 27.3847 7.20096 27.3925 7.16114 27.3977C7.08398 27.4081 7.00682 27.4185 6.92965 27.4341C6.88485 27.4445 6.84005 27.4575 6.79276 27.4679C6.72306 27.4861 6.65586 27.4991 6.58865 27.5225C6.54136 27.5381 6.49656 27.5564 6.44926 27.5746C6.38704 27.598 6.32232 27.6188 6.2601 27.6448C6.2128 27.6656 6.168 27.689 6.1232 27.7124C6.06346 27.741 6.00372 27.7696 5.94398 27.8009C5.89918 27.8269 5.85438 27.8555 5.80957 27.8815C5.75233 27.9153 5.69757 27.9491 5.64281 27.9855C5.598 28.0168 5.55569 28.0506 5.51337 28.0844C5.4611 28.1234 5.40883 28.1624 5.35905 28.204C5.31674 28.2405 5.27691 28.2795 5.2346 28.3185C5.17735 28.3705 5.1201 28.4225 5.06534 28.4772C4.80897 28.7451 4.59989 29.0442 4.43561 29.3642L15.4696 40.8925C16.6345 42.1124 18.011 43.0202 19.5542 43.5951L20.9456 44.1127V38.939L20.3781 38.6347H20.3756Z" fill="#1A153B"/>
<path style="mix-blend-mode:multiply" opacity="0.3" d="M29.5901 32.7483C29.5901 34.5171 28.9305 36.1792 27.7358 37.4278C26.9368 38.2627 25.9362 38.8584 24.8385 39.1497L24.0544 39.3578V44.3026L25.289 44.0633C27.4794 43.6367 29.4706 42.539 31.0487 40.8899C35.3423 36.4029 35.3423 29.0989 31.0487 24.6119L20.0122 13.0809C19.706 13.2552 19.4223 13.4737 19.1684 13.739C19.0937 13.8197 19.024 13.9003 18.9543 13.9861C18.9419 14.0017 18.9294 14.0147 18.917 14.0278C18.8622 14.098 18.8149 14.1708 18.7651 14.2436C18.7452 14.2749 18.7203 14.3035 18.7004 14.3373C18.6631 14.3971 18.6283 14.4621 18.5959 14.5246C18.571 14.5714 18.5411 14.6156 18.5187 14.6624C18.4938 14.7119 18.4739 14.7639 18.4515 14.8159C18.4241 14.8783 18.3943 14.9382 18.3694 15.0006C18.3545 15.0396 18.3445 15.0786 18.3296 15.1176C18.3022 15.1957 18.2748 15.2711 18.2524 15.3491C18.2424 15.383 18.2375 15.4142 18.23 15.448C18.2076 15.5338 18.1852 15.6197 18.1703 15.7055C18.1653 15.7341 18.1628 15.7627 18.1578 15.7939C18.1429 15.885 18.1279 15.976 18.1205 16.0697C18.118 16.1009 18.1205 16.1347 18.1155 16.1659C18.1105 16.2543 18.1031 16.3428 18.1031 16.4338C18.1031 16.4884 18.108 16.5431 18.1105 16.6003C18.113 16.6653 18.113 16.733 18.1205 16.798C18.1304 16.8942 18.1454 16.9905 18.1603 17.0867C18.1653 17.1101 18.1653 17.1361 18.1703 17.1595C18.3022 17.8775 18.6357 18.5668 19.1659 19.1208L27.7333 28.074C28.928 29.3226 29.5876 30.9847 29.5876 32.7535L29.5901 32.7483Z" fill="#1A153B"/>
</g>
<defs>
<filter id="filter0_d_6_44" x="53.6519" y="12.94" width="98.8928" height="29.39" filterUnits="userSpaceOnUse" color-interpolation-filters="sRGB">
<feFlood flood-opacity="0" result="BackgroundImageFix"/>
<feColorMatrix in="SourceAlpha" type="matrix" values="0 0 0 0 0 0 0 0 0 0 0 0 0 0 0 0 0 0 127 0" result="hardAlpha"/>
<feOffset dy="4"/>
<feGaussianBlur stdDeviation="2"/>
<feComposite in2="hardAlpha" operator="out"/>
<feColorMatrix type="matrix" values="0 0 0 0 0.101961 0 0 0 0 0.0823529 0 0 0 0 0.231373 0 0 0 0.25 0"/>
<feBlend mode="normal" in2="BackgroundImageFix" result="effect1_dropShadow_6_44"/>
<feBlend mode="normal" in="SourceGraphic" in2="effect1_dropShadow_6_44" result="shape"/>
</filter>
<clipPath id="clip0_6_44">
<rect width="37" height="45" fill="white" transform="translate(4 2)"/>
</clipPath>
</defs>
</svg>
