<svg width="201" height="49" viewBox="0 0 201 49" fill="none" xmlns="http://www.w3.org/2000/svg">
<path d="M69.7897 29.4189C69.7897 29.0381 69.7311 28.6963 69.6139 28.3936C69.5065 28.0811 69.3014 27.7979 68.9987 27.5439C68.6959 27.2803 68.2711 27.0215 67.7242 26.7676C67.1774 26.5137 66.4694 26.25 65.6002 25.9766C64.6334 25.6641 63.7155 25.3125 62.8463 24.9219C61.9869 24.5312 61.2252 24.0771 60.5612 23.5596C59.9069 23.0322 59.3893 22.4219 59.0084 21.7285C58.6373 21.0352 58.4518 20.2295 58.4518 19.3115C58.4518 18.4229 58.6471 17.6172 59.0377 16.8945C59.4283 16.1621 59.9752 15.5371 60.6783 15.0195C61.3815 14.4922 62.2115 14.0869 63.1686 13.8037C64.1354 13.5205 65.1949 13.3789 66.3473 13.3789C67.9196 13.3789 69.2916 13.6621 70.4635 14.2285C71.6354 14.7949 72.5436 15.5713 73.1881 16.5576C73.8424 17.5439 74.1696 18.6719 74.1696 19.9414H69.8043C69.8043 19.3164 69.6725 18.7695 69.4088 18.3008C69.1549 17.8223 68.7643 17.4463 68.2369 17.1729C67.7194 16.8994 67.0651 16.7627 66.274 16.7627C65.5123 16.7627 64.8776 16.8799 64.3698 17.1143C63.8619 17.3389 63.4811 17.6465 63.2272 18.0371C62.9733 18.418 62.8463 18.8477 62.8463 19.3262C62.8463 19.6875 62.9342 20.0146 63.11 20.3076C63.2955 20.6006 63.569 20.874 63.9303 21.1279C64.2916 21.3818 64.736 21.6211 65.2633 21.8457C65.7906 22.0703 66.401 22.29 67.0944 22.5049C68.2565 22.8564 69.277 23.252 70.1559 23.6914C71.0446 24.1309 71.7867 24.624 72.3824 25.1709C72.9781 25.7178 73.4274 26.3379 73.7301 27.0312C74.0328 27.7246 74.1842 28.5107 74.1842 29.3896C74.1842 30.3174 74.0035 31.1475 73.6422 31.8799C73.2809 32.6123 72.7584 33.2324 72.0748 33.7402C71.3912 34.248 70.5758 34.6338 69.6285 34.8975C68.6813 35.1611 67.6217 35.293 66.4498 35.293C65.3951 35.293 64.3551 35.1562 63.3297 34.8828C62.3043 34.5996 61.3717 34.1748 60.5319 33.6084C59.7018 33.042 59.0377 32.3193 58.5397 31.4404C58.0416 30.5615 57.7926 29.5215 57.7926 28.3203H62.2018C62.2018 28.9844 62.3043 29.5459 62.5094 30.0049C62.7145 30.4639 63.0026 30.835 63.3737 31.1182C63.7545 31.4014 64.2037 31.6064 64.7213 31.7334C65.2487 31.8604 65.8248 31.9238 66.4498 31.9238C67.2115 31.9238 67.8365 31.8164 68.3248 31.6016C68.8229 31.3867 69.1891 31.0889 69.4235 30.708C69.6676 30.3271 69.7897 29.8975 69.7897 29.4189ZM85.4635 31.4258V24.3652C85.4635 23.8574 85.3805 23.4229 85.2145 23.0615C85.0485 22.6904 84.7897 22.4023 84.4381 22.1973C84.0963 21.9922 83.652 21.8896 83.1051 21.8896C82.6364 21.8896 82.2311 21.9727 81.8893 22.1387C81.5475 22.2949 81.2838 22.5244 81.0983 22.8271C80.9127 23.1201 80.8199 23.4668 80.8199 23.8672H76.6012C76.6012 23.1934 76.7574 22.5537 77.0699 21.9482C77.3824 21.3428 77.8365 20.8105 78.4323 20.3516C79.028 19.8828 79.736 19.5166 80.5563 19.2529C81.3864 18.9893 82.3141 18.8574 83.3395 18.8574C84.5699 18.8574 85.6637 19.0625 86.6207 19.4727C87.5778 19.8828 88.3297 20.498 88.8766 21.3184C89.4332 22.1387 89.7115 23.1641 89.7115 24.3945V31.1768C89.7115 32.0459 89.7653 32.7588 89.8727 33.3154C89.9801 33.8623 90.1364 34.3408 90.3414 34.751V35H86.0787C85.8737 34.5703 85.7174 34.0332 85.61 33.3887C85.5123 32.7344 85.4635 32.0801 85.4635 31.4258ZM86.0201 25.3467L86.0494 27.7344H83.691C83.1344 27.7344 82.651 27.7979 82.2408 27.9248C81.8307 28.0518 81.4938 28.2324 81.2301 28.4668C80.9664 28.6914 80.7711 28.9551 80.6442 29.2578C80.527 29.5605 80.4684 29.8926 80.4684 30.2539C80.4684 30.6152 80.5514 30.9424 80.7174 31.2354C80.8834 31.5186 81.1227 31.7432 81.4352 31.9092C81.7477 32.0654 82.1139 32.1436 82.5338 32.1436C83.1686 32.1436 83.7203 32.0166 84.1891 31.7627C84.6578 31.5088 85.0192 31.1963 85.2731 30.8252C85.5367 30.4541 85.6735 30.1025 85.6832 29.7705L86.7965 31.5576C86.6403 31.958 86.4254 32.373 86.152 32.8027C85.8883 33.2324 85.5514 33.6377 85.1412 34.0186C84.7311 34.3896 84.2379 34.6973 83.6617 34.9414C83.0856 35.1758 82.402 35.293 81.611 35.293C80.6051 35.293 79.692 35.0928 78.8717 34.6924C78.0612 34.2822 77.4166 33.7207 76.9381 33.0078C76.4694 32.2852 76.235 31.4648 76.235 30.5469C76.235 29.7168 76.3912 28.9795 76.7037 28.335C77.0162 27.6904 77.4752 27.1484 78.0807 26.709C78.6959 26.2598 79.4625 25.9229 80.3805 25.6982C81.2985 25.4639 82.3629 25.3467 83.5739 25.3467H86.0201ZM97.1823 22.4316V35H92.9489V19.1504H96.9186L97.1823 22.4316ZM96.5963 26.5186H95.4244C95.4244 25.415 95.5563 24.3994 95.8199 23.4717C96.0934 22.5342 96.4889 21.7236 97.0065 21.04C97.5338 20.3467 98.1832 19.8096 98.9547 19.4287C99.7262 19.0479 100.62 18.8574 101.635 18.8574C102.339 18.8574 102.983 18.9648 103.569 19.1797C104.155 19.3848 104.658 19.7119 105.078 20.1611C105.507 20.6006 105.839 21.1768 106.074 21.8896C106.308 22.5928 106.425 23.4375 106.425 24.4238V35H102.207V24.8926C102.207 24.1699 102.109 23.6133 101.914 23.2227C101.718 22.832 101.44 22.5586 101.079 22.4023C100.727 22.2461 100.302 22.168 99.8043 22.168C99.2574 22.168 98.7789 22.2803 98.3688 22.5049C97.9684 22.7295 97.6364 23.042 97.3727 23.4424C97.109 23.833 96.9137 24.292 96.7867 24.8193C96.6598 25.3467 96.5963 25.9131 96.5963 26.5186ZM106.03 26.0352L104.521 26.2256C104.521 25.1904 104.648 24.2285 104.902 23.3398C105.166 22.4512 105.551 21.6699 106.059 20.9961C106.577 20.3223 107.216 19.7998 107.978 19.4287C108.74 19.0479 109.619 18.8574 110.615 18.8574C111.377 18.8574 112.07 18.9697 112.695 19.1943C113.32 19.4092 113.852 19.7559 114.292 20.2344C114.741 20.7031 115.083 21.3184 115.317 22.0801C115.561 22.8418 115.683 23.7744 115.683 24.8779V35H111.45V24.8779C111.45 24.1455 111.352 23.5889 111.157 23.208C110.971 22.8174 110.698 22.5488 110.337 22.4023C109.985 22.2461 109.565 22.168 109.077 22.168C108.569 22.168 108.125 22.2705 107.744 22.4756C107.363 22.6709 107.046 22.9443 106.792 23.2959C106.538 23.6475 106.347 24.0576 106.22 24.5264C106.093 24.9854 106.03 25.4883 106.03 26.0352ZM127.505 31.4258V24.3652C127.505 23.8574 127.422 23.4229 127.255 23.0615C127.089 22.6904 126.831 22.4023 126.479 22.1973C126.137 21.9922 125.693 21.8896 125.146 21.8896C124.677 21.8896 124.272 21.9727 123.93 22.1387C123.589 22.2949 123.325 22.5244 123.139 22.8271C122.954 23.1201 122.861 23.4668 122.861 23.8672H118.642C118.642 23.1934 118.798 22.5537 119.111 21.9482C119.423 21.3428 119.878 20.8105 120.473 20.3516C121.069 19.8828 121.777 19.5166 122.597 19.2529C123.427 18.9893 124.355 18.8574 125.38 18.8574C126.611 18.8574 127.705 19.0625 128.662 19.4727C129.619 19.8828 130.371 20.498 130.918 21.3184C131.474 22.1387 131.753 23.1641 131.753 24.3945V31.1768C131.753 32.0459 131.806 32.7588 131.914 33.3154C132.021 33.8623 132.177 34.3408 132.382 34.751V35H128.12C127.915 34.5703 127.758 34.0332 127.651 33.3887C127.553 32.7344 127.505 32.0801 127.505 31.4258ZM128.061 25.3467L128.09 27.7344H125.732C125.175 27.7344 124.692 27.7979 124.282 27.9248C123.872 28.0518 123.535 28.2324 123.271 28.4668C123.007 28.6914 122.812 28.9551 122.685 29.2578C122.568 29.5605 122.509 29.8926 122.509 30.2539C122.509 30.6152 122.592 30.9424 122.758 31.2354C122.924 31.5186 123.164 31.7432 123.476 31.9092C123.789 32.0654 124.155 32.1436 124.575 32.1436C125.21 32.1436 125.761 32.0166 126.23 31.7627C126.699 31.5088 127.06 31.1963 127.314 30.8252C127.578 30.4541 127.714 30.1025 127.724 29.7705L128.838 31.5576C128.681 31.958 128.466 32.373 128.193 32.8027C127.929 33.2324 127.592 33.6377 127.182 34.0186C126.772 34.3896 126.279 34.6973 125.703 34.9414C125.127 35.1758 124.443 35.293 123.652 35.293C122.646 35.293 121.733 35.0928 120.913 34.6924C120.102 34.2822 119.458 33.7207 118.979 33.0078C118.51 32.2852 118.276 31.4648 118.276 30.5469C118.276 29.7168 118.432 28.9795 118.745 28.335C119.057 27.6904 119.516 27.1484 120.122 26.709C120.737 26.2598 121.504 25.9229 122.422 25.6982C123.339 25.4639 124.404 25.3467 125.615 25.3467H128.061ZM144.365 31.543V12.5H148.613V35H144.79L144.365 31.543ZM134.345 27.2656V26.958C134.345 25.7471 134.482 24.6484 134.755 23.6621C135.029 22.666 135.429 21.8115 135.957 21.0986C136.484 20.3857 137.133 19.834 137.905 19.4434C138.676 19.0527 139.555 18.8574 140.542 18.8574C141.469 18.8574 142.28 19.0527 142.973 19.4434C143.676 19.834 144.272 20.3906 144.76 21.1133C145.258 21.8262 145.659 22.6709 145.962 23.6475C146.264 24.6143 146.484 25.6738 146.621 26.8262V27.5C146.484 28.6035 146.264 29.6289 145.962 30.5762C145.659 31.5234 145.258 32.3535 144.76 33.0664C144.272 33.7695 143.676 34.3164 142.973 34.707C142.27 35.0977 141.45 35.293 140.512 35.293C139.526 35.293 138.647 35.0928 137.876 34.6924C137.114 34.292 136.469 33.7305 135.942 33.0078C135.424 32.2852 135.029 31.4355 134.755 30.459C134.482 29.4824 134.345 28.418 134.345 27.2656ZM138.564 26.958V27.2656C138.564 27.9199 138.613 28.5303 138.711 29.0967C138.818 29.6631 138.989 30.166 139.223 30.6055C139.467 31.0352 139.78 31.3721 140.161 31.6162C140.551 31.8506 141.025 31.9678 141.582 31.9678C142.304 31.9678 142.9 31.8066 143.369 31.4844C143.838 31.1523 144.194 30.6982 144.438 30.1221C144.692 29.5459 144.839 28.8818 144.878 28.1299V26.2109C144.848 25.5957 144.76 25.0439 144.614 24.5557C144.477 24.0576 144.272 23.6328 143.999 23.2812C143.735 22.9297 143.403 22.6562 143.003 22.4609C142.612 22.2656 142.148 22.168 141.611 22.168C141.064 22.168 140.595 22.2949 140.205 22.5488C139.814 22.793 139.497 23.1299 139.253 23.5596C139.018 23.9893 138.842 24.4971 138.725 25.083C138.618 25.6592 138.564 26.2842 138.564 26.958ZM156.025 12.5V35H151.806V12.5H156.025ZM155.424 26.5186H154.267C154.277 25.415 154.423 24.3994 154.707 23.4717C154.99 22.5342 155.395 21.7236 155.922 21.04C156.45 20.3467 157.08 19.8096 157.812 19.4287C158.554 19.0479 159.375 18.8574 160.273 18.8574C161.054 18.8574 161.762 18.9697 162.397 19.1943C163.042 19.4092 163.593 19.7607 164.052 20.249C164.521 20.7275 164.882 21.3574 165.136 22.1387C165.39 22.9199 165.517 23.8672 165.517 24.9805V35H161.269V24.9512C161.269 24.248 161.167 23.6963 160.962 23.2959C160.766 22.8857 160.478 22.5977 160.097 22.4316C159.726 22.2559 159.267 22.168 158.72 22.168C158.115 22.168 157.597 22.2803 157.168 22.5049C156.748 22.7295 156.411 23.042 156.157 23.4424C155.903 23.833 155.717 24.292 155.6 24.8193C155.483 25.3467 155.424 25.9131 155.424 26.5186ZM177.28 31.4258V24.3652C177.28 23.8574 177.197 23.4229 177.031 23.0615C176.865 22.6904 176.606 22.4023 176.255 22.1973C175.913 21.9922 175.468 21.8896 174.922 21.8896C174.453 21.8896 174.047 21.9727 173.706 22.1387C173.364 22.2949 173.1 22.5244 172.915 22.8271C172.729 23.1201 172.636 23.4668 172.636 23.8672H168.418C168.418 23.1934 168.574 22.5537 168.886 21.9482C169.199 21.3428 169.653 20.8105 170.249 20.3516C170.844 19.8828 171.552 19.5166 172.373 19.2529C173.203 18.9893 174.13 18.8574 175.156 18.8574C176.386 18.8574 177.48 19.0625 178.437 19.4727C179.394 19.8828 180.146 20.498 180.693 21.3184C181.25 22.1387 181.528 23.1641 181.528 24.3945V31.1768C181.528 32.0459 181.582 32.7588 181.689 33.3154C181.797 33.8623 181.953 34.3408 182.158 34.751V35H177.895C177.69 34.5703 177.534 34.0332 177.426 33.3887C177.329 32.7344 177.28 32.0801 177.28 31.4258ZM177.837 25.3467L177.866 27.7344H175.507C174.951 27.7344 174.467 27.7979 174.057 27.9248C173.647 28.0518 173.31 28.2324 173.047 28.4668C172.783 28.6914 172.588 28.9551 172.461 29.2578C172.343 29.5605 172.285 29.8926 172.285 30.2539C172.285 30.6152 172.368 30.9424 172.534 31.2354C172.7 31.5186 172.939 31.7432 173.252 31.9092C173.564 32.0654 173.93 32.1436 174.35 32.1436C174.985 32.1436 175.537 32.0166 176.005 31.7627C176.474 31.5088 176.836 31.1963 177.089 30.8252C177.353 30.4541 177.49 30.1025 177.5 29.7705L178.613 31.5576C178.457 31.958 178.242 32.373 177.968 32.8027C177.705 33.2324 177.368 33.6377 176.958 34.0186C176.547 34.3896 176.054 34.6973 175.478 34.9414C174.902 35.1758 174.218 35.293 173.427 35.293C172.422 35.293 171.508 35.0928 170.688 34.6924C169.878 34.2822 169.233 33.7207 168.755 33.0078C168.286 32.2852 168.051 31.4648 168.051 30.5469C168.051 29.7168 168.208 28.9795 168.52 28.335C168.833 27.6904 169.292 27.1484 169.897 26.709C170.512 26.2598 171.279 25.9229 172.197 25.6982C173.115 25.4639 174.179 25.3467 175.39 25.3467H177.837ZM188.911 22.5342V35H184.692V19.1504H188.647L188.911 22.5342ZM188.296 26.5186H187.153C187.153 25.3467 187.304 24.292 187.607 23.3545C187.91 22.4072 188.335 21.6016 188.881 20.9375C189.428 20.2637 190.078 19.751 190.83 19.3994C191.591 19.0381 192.441 18.8574 193.379 18.8574C194.121 18.8574 194.799 18.9648 195.415 19.1797C196.03 19.3945 196.557 19.7363 196.997 20.2051C197.446 20.6738 197.788 21.2939 198.022 22.0654C198.266 22.8369 198.388 23.7793 198.388 24.8926V35H194.14V24.8779C194.14 24.1748 194.043 23.6279 193.847 23.2373C193.652 22.8467 193.364 22.5732 192.983 22.417C192.612 22.251 192.153 22.168 191.606 22.168C191.04 22.168 190.547 22.2803 190.127 22.5049C189.716 22.7295 189.375 23.042 189.101 23.4424C188.838 23.833 188.637 24.292 188.501 24.8193C188.364 25.3467 188.296 25.9131 188.296 26.5186Z" fill="#1A153B"/>
<g clip-path="url(#clip0_78_7247)">
<path d="M25.8316 29.8818L17.2643 20.9286C16.0695 19.6775 15.4099 18.0179 15.4099 16.2491C15.4099 14.4803 16.0695 12.8182 17.2643 11.5697C18.0583 10.7399 19.0614 10.1442 20.1665 9.85029L20.9481 9.6422C20.9481 7.47023 20.9481 4.12254 20.9456 3.26156V2L19.7509 2.18208C16.8386 2.62948 14.1977 4.01329 12.1169 6.19046C9.54567 8.87746 8.12939 12.4514 8.12939 16.2491C8.12939 20.0468 9.54567 23.6208 12.1169 26.3078L20.6843 35.261C21.3712 35.9789 22.2847 36.3743 23.258 36.3743C24.2312 36.3743 25.1422 35.9789 25.8316 35.261C27.2504 33.7783 27.2504 31.3645 25.8316 29.8818Z" fill="#148EFF"/>
<path d="M39.9347 15.1436L31.3673 6.19045C29.7121 4.46328 27.6412 3.20432 25.3711 2.55143L24.0519 2.17166V10.0558L24.6219 10.3575C25.2168 10.6748 25.7545 11.0806 26.2199 11.5696L34.7873 20.5228C35.4743 21.2407 36.3903 21.6361 37.361 21.6361C38.3317 21.6361 39.2477 21.2407 39.9347 20.5228C41.3535 19.0402 41.3535 16.6263 39.9347 15.1436Z" fill="#148EFF"/>
<path style="mix-blend-mode:multiply" opacity="0.3" d="M26.0805 30.1705C26.0033 30.0717 25.9187 29.9754 25.8316 29.8818L17.2642 20.9286C16.0695 19.6774 15.4099 18.0179 15.4099 16.2491C15.4099 14.4803 16.0695 12.8182 17.2642 11.5696C17.3638 11.4656 17.4658 11.3668 17.5729 11.2705C18.3121 10.5968 19.2007 10.1078 20.1665 9.85028L20.948 9.64219C20.948 8.24536 20.948 6.46617 20.948 6.00837V4.69739L19.7135 4.93669C17.5256 5.36328 15.5343 6.46097 13.9563 8.1101C9.66261 12.5971 9.66261 19.9011 13.9563 24.3907L24.9878 35.9191C25.167 35.8176 25.3363 35.7006 25.4956 35.5679L25.5877 35.4847H25.5976C25.6773 35.4118 25.7569 35.339 25.8316 35.261C27.1608 33.8694 27.2454 31.661 26.0805 30.1705Z" fill="#1A153B"/>
<path style="mix-blend-mode:multiply" opacity="0.3" d="M35.0611 20.783C35.1632 20.8714 35.2727 20.952 35.3847 21.0275C35.9671 21.4228 36.6491 21.6361 37.361 21.6361C38.3318 21.6361 39.2452 21.2408 39.9322 20.5254L39.9422 20.515C40.1961 20.2497 40.4002 19.9532 40.5644 19.6384L29.5329 8.11012C28.368 6.89278 26.9916 5.98238 25.4483 5.40752L24.0569 4.88989V10.0532L24.6269 10.3549C25.2218 10.6723 25.7595 11.078 26.2249 11.5671L34.7923 20.5202C34.8794 20.6113 34.969 20.6945 35.0611 20.7752C35.0611 20.7752 35.0661 20.7778 35.0686 20.7804L35.0611 20.783Z" fill="#1A153B"/>
<path d="M20.3756 38.6347C19.7732 38.3121 19.2356 37.9064 18.7776 37.4277L10.2102 28.4746C9.52327 27.7566 8.60978 27.3613 7.63655 27.3613C6.66333 27.3613 5.74984 27.7566 5.06286 28.4746C3.64409 29.9572 3.64409 32.3711 5.06286 33.8538L13.6302 42.8069C15.2904 44.5419 17.3638 45.8009 19.6239 46.4512L20.9431 46.8309V38.939L20.3756 38.6347Z" fill="#148EFF"/>
<path d="M32.8807 22.6896L24.3133 13.7364C23.6263 13.0185 22.7128 12.6231 21.7396 12.6231C20.7664 12.6231 19.8529 13.0185 19.1659 13.7364C17.7496 15.2191 17.7496 17.6303 19.1659 19.1156L27.7333 28.0688C28.928 29.3173 29.5876 30.9795 29.5876 32.7483C29.5876 34.517 28.928 36.1792 27.7333 37.4277C26.9343 38.2627 25.9337 38.8584 24.836 39.1497L24.0519 39.3578V46.9974L25.2442 46.8153C28.1539 46.3731 30.7948 44.9841 32.8807 42.8043C35.4519 40.1173 36.8682 36.5459 36.8682 32.7457C36.8682 28.9454 35.4519 25.374 32.8807 22.687V22.6896Z" fill="#148EFF"/>
<path style="mix-blend-mode:multiply" opacity="0.3" d="M20.3756 38.6347C19.7732 38.3121 19.2356 37.9064 18.7776 37.4277L10.2102 28.4746C9.52326 27.7566 8.60978 27.3613 7.63655 27.3613C7.51707 27.3613 7.3976 27.3665 7.28061 27.3795C7.24079 27.3847 7.20096 27.3925 7.16114 27.3977C7.08398 27.4081 7.00682 27.4185 6.92965 27.4341C6.88485 27.4445 6.84005 27.4575 6.79276 27.4679C6.72306 27.4861 6.65586 27.4991 6.58865 27.5225C6.54136 27.5381 6.49656 27.5564 6.44926 27.5746C6.38704 27.598 6.32232 27.6188 6.2601 27.6448C6.2128 27.6656 6.168 27.689 6.1232 27.7124C6.06346 27.741 6.00372 27.7696 5.94398 27.8009C5.89918 27.8269 5.85438 27.8555 5.80957 27.8815C5.75233 27.9153 5.69757 27.9491 5.64281 27.9855C5.598 28.0168 5.55569 28.0506 5.51337 28.0844C5.4611 28.1234 5.40883 28.1624 5.35905 28.204C5.31674 28.2405 5.27691 28.2795 5.2346 28.3185C5.17735 28.3705 5.1201 28.4225 5.06534 28.4772C4.80897 28.7451 4.59989 29.0442 4.43561 29.3642L15.4696 40.8925C16.6345 42.1124 18.011 43.0202 19.5542 43.5951L20.9456 44.1127V38.939L20.3781 38.6347H20.3756Z" fill="#1A153B"/>
<path style="mix-blend-mode:multiply" opacity="0.3" d="M29.5901 32.7483C29.5901 34.5171 28.9305 36.1792 27.7358 37.4278C26.9368 38.2627 25.9362 38.8584 24.8385 39.1497L24.0545 39.3578V44.3026L25.289 44.0633C27.4794 43.6367 29.4707 42.539 31.0487 40.8899C35.3424 36.4029 35.3424 29.0989 31.0487 24.6119L20.0122 13.0809C19.706 13.2552 19.4223 13.4737 19.1684 13.739C19.0937 13.8197 19.024 13.9003 18.9544 13.9861C18.9419 14.0017 18.9295 14.0147 18.917 14.0278C18.8623 14.098 18.815 14.1708 18.7652 14.2436C18.7453 14.2749 18.7204 14.3035 18.7005 14.3373C18.6631 14.3971 18.6283 14.4621 18.5959 14.5246C18.571 14.5714 18.5412 14.6156 18.5188 14.6624C18.4939 14.7119 18.474 14.7639 18.4516 14.8159C18.4242 14.8783 18.3943 14.9382 18.3694 15.0006C18.3545 15.0396 18.3445 15.0786 18.3296 15.1176C18.3022 15.1957 18.2748 15.2711 18.2524 15.3491C18.2425 15.383 18.2375 15.4142 18.23 15.448C18.2076 15.5338 18.1852 15.6197 18.1703 15.7055C18.1653 15.7341 18.1628 15.7627 18.1578 15.7939C18.1429 15.885 18.128 15.976 18.1205 16.0697C18.118 16.1009 18.1205 16.1347 18.1155 16.1659C18.1106 16.2543 18.1031 16.3428 18.1031 16.4338C18.1031 16.4884 18.1081 16.5431 18.1106 16.6003C18.113 16.6653 18.113 16.733 18.1205 16.798C18.1305 16.8942 18.1454 16.9905 18.1603 17.0867C18.1653 17.1101 18.1653 17.1361 18.1703 17.1595C18.3022 17.8775 18.6357 18.5668 19.1659 19.1208L27.7333 28.074C28.928 29.3226 29.5877 30.9847 29.5877 32.7535L29.5901 32.7483Z" fill="#1A153B"/>
</g>
<defs>
<clipPath id="clip0_78_7247">
<rect width="37" height="45" fill="white" transform="translate(4 2)"/>
</clipPath>
</defs>
</svg>
